<?xml version="1.0" standalone="no"?>
<!DOCTYPE svg PUBLIC "-//W3C//DTD SVG 1.1//EN" "http://www.w3.org/Graphics/SVG/1.1/DTD/svg11.dtd">
<svg xmlns="http://www.w3.org/2000/svg">
<metadata>Generated by IcoMoon</metadata>
<defs>
<font id="MVideo_icon_font" horiz-adv-x="1024">
<font-face units-per-em="1024" ascent="960" descent="-64"/>
<missing-glyph horiz-adv-x="1024"/>
<glyph unicode=" " horiz-adv-x="512" d/>
<glyph unicode="" glyph-name="user" horiz-adv-x="920" d="M921.19-21.684c-8.14 272.716-210.996 490.982-460.364 490.982-249.318 0-452.276-218.266-460.364-490.982-0.258-1.356-0.462-2.764-0.462-4.198v-12.724c0-14.054 10.342-25.394 23.014-25.394h875.572c12.672 0 23.014 11.34 23.014 25.396v12.724c0 1.432-0.18 2.84-0.41 4.196zM243.942 746.676c0-117.844 97.091-213.376 216.858-213.376s216.858 95.532 216.858 213.376c0 117.844-97.091 213.376-216.858 213.376s-216.858-95.532-216.858-213.376z"/>
<glyph unicode="" glyph-name="tooltip" d="M512 857.6c-225.878 0-409.6-183.766-409.6-409.6 0-225.878 183.766-409.6 409.6-409.6s409.6 183.766 409.6 409.6c0 225.834-183.766 409.6-409.6 409.6zM512 960c-282.326 0-512-229.674-512-512s229.674-512 512-512c282.326 0 512 229.674 512 512s-229.674 512-512 512zM512 38.4c-225.878 0-409.6 183.766-409.6 409.6s183.766 409.6 409.6 409.6c225.834 0 409.6-183.766 409.6-409.6 0-225.878-183.766-409.6-409.6-409.6zM556.288 578.518c0 19.37-15.786 31.574-43.008 31.574-35.158 0-58.112-10.070-76.032-20.096-5.034-2.858-11.478-7.894-17.92-2.858-7.936 5.758-19.414 22.228-19.414 40.148 0 43.734 61.696 60.97 121.942 60.97 84.608 0 130.518-41.6 130.518-100.394 0-96.086-119.040-133.376-119.040-184.32 0-13.61 10.752-23.68 29.398-23.68 12.928 0 16.512-4.992 12.928-20.096-5.034-21.504-22.954-35.158-54.528-35.158-45.91 0-67.414 36.566-67.414 78.166 0 88.96 102.57 112.64 102.57 175.744zM520.406 282.326c32.298 0 55.21-22.23 55.21-54.486 0-32.298-22.954-53.802-55.21-53.802-32.982 0-54.486 21.504-54.486 53.802 0 32.256 22.23 54.486 54.486 54.486z"/>
<glyph unicode="" glyph-name="phone" horiz-adv-x="584" d="M511.976 960h-438.808c-40.4 0-73.168-31.232-73.168-69.828v-884.37c0-38.522 32.768-69.802 73.168-69.802h438.808c40.398 0 73.166 31.28 73.166 69.802v884.37c0 38.596-32.768 69.828-73.166 69.828zM316.952-17.456h-48.762c-13.434 0-24.38 10.41-24.38 23.26 0 12.874 10.948 23.284 24.38 23.284h48.762c13.532 0 24.356-10.41 24.356-23.284 0-12.85-10.824-23.26-24.356-23.26zM536.38 75.63h-487.642v744.74h487.642v-744.74z"/>
<glyph unicode="" glyph-name="loader" horiz-adv-x="974" d="M938.252 338.846c7.242-9.532 5.168-22.406-4.022-29.526-9.654-6.852-22.748-5.242-30.038 4.266-7.412 9.29-5.218 22.284 4.048 29.526 9.8 6.9 23.162 5.34 30.012-4.266zM965.9 484.62c15.116-19.432 11.556-47.372-8.266-62.416-19.894-14.702-47.178-10.532-62.268 9.046-14.726 19.578-10.678 47.25 8.412 61.976 20.186 15.19 47.884 10.898 62.122-8.606zM937.424 664.772c20.212-25.868 14.556-63.050-11.362-82.992-25.942-19.92-63.292-14.41-83.066 11.556-19.382 26.478-14.336 63.414 11.752 83.382 25.868 19.602 63.292 14.53 82.676-11.946zM803.084 838.412c28.306-37.572 20.918-91.062-16.896-119.174-37.352-28.696-90.722-20.822-118.492 16.286-28.282 37.718-21.358 91.258 15.97 119.588 37.79 28.064 91.16 20.506 119.418-16.7zM572.342 920.308c32.988-44.3 24.942-106.788-19.504-140.214-44.056-33.5-105.96-24.528-139.606 19.578-33.060 44.202-25.112 106.74 19.31 140.020 43.984 33.424 106.618 24.624 139.8-19.384zM316.854 839.802c42.422-56.612 31.402-137.168-25.454-179.492-56.15-42.862-136.362-31.548-179.102 24.796-42.592 56.708-31.67 136.8 24.844 179.808 56.32 42.472 136.948 31.598 179.712-25.112zM51.786 547.036c-8.412 10.556-7.388 25.942 3.316 35.084 10.532 8.314 26.356 6.852 34.768-3.852 8.802-10.216 7.388-25.99-3.73-34.792-10.194-8.412-25.944-7.070-34.354 3.56zM10.338 391.144c-15.798 19.236-13.142 47.226 5.778 63.342 19.188 15.238 47.202 12.484 62.708-6.266 16.482-19.236 13.264-47.056-5.364-63.464-19.53-15.774-47.422-12.532-63.122 6.388zM45.226 205.75c-21.578 26.038-17.92 64.488 8.144 86.016 25.82 21.504 64.682 17.628 86.064-8.046 21.358-26.088 17.384-64.61-8.68-86.626-25.526-21.526-64.34-17.796-85.528 8.656zM191.172 46.348c-28.55 35.254-23.796 86.43 11.094 114.81 34.646 28.598 86.358 23.552 114.566-10.996 28.648-34.718 23.772-85.748-11.312-114.786-34.112-28.428-85.604-23.82-114.348 10.972zM413.892-28.72c-33.988 41.788-27.794 102.546 13.116 136.728 41.448 34.084 102.57 28.404 136.9-12.946 33.67-41.96 28.208-102.888-13.166-137.314-41.156-33.548-102.742-27.722-136.85 13.532zM650.020 83.846c-44.666 54.662-36.986 135.632 17.652 181.126 54.906 44.74 135.704 37.474 181.296-17.798 44.592-54.442 36.84-135.558-17.53-180.882-55.050-44.984-135.972-36.938-181.418 17.554z"/>
<glyph unicode="" glyph-name="no-image" horiz-adv-x="1364" d="M682.666 635.734c-122.344 0-221.866-99.548-221.866-221.892 0-122.32 99.524-221.866 221.866-221.866 122.32 0 221.866 99.524 221.866 221.866 0.002 122.344-99.546 221.892-221.866 221.892zM1228.8 823.466h-204.8c0 75.386-61.148 136.534-136.534 136.534h-409.6c-75.386 0-136.532-61.148-136.532-136.534h-204.8c-75.386 0-136.534-61.122-136.534-136.532v-614.4c0-75.386 61.148-136.534 136.534-136.534h1092.266c75.386 0 136.534 61.148 136.534 136.534v614.4c0 75.41-61.148 136.532-136.534 136.532zM682.666 89.6c-178.81 0-324.266 145.482-324.266 324.266 0 178.81 145.456 324.268 324.266 324.268s324.266-145.482 324.266-324.292c0.002-178.76-145.456-324.242-324.266-324.242zM216.138 657.188h-68.292c-18.798 0-34.108 14.628-34.108 32.622s15.336 32.598 34.108 32.598h68.292c18.92 0 34.108-14.604 34.108-32.598 0.024-17.992-15.164-32.622-34.108-32.622z"/>
<glyph unicode="" glyph-name="filter" horiz-adv-x="1462" d="M1206.784 960h-950.784c-60.562 0-109.714-46.666-109.714-104.228v-699.868h1170.286v699.868c0 57.562-49.152 104.228-109.788 104.228zM1243.428 260.096h-1024v601.162h1024v-601.162zM862.428 82.176l-36.498-36.608h-182.93l-36.572 36.608h-606.428v-36.534c0-60.526 49.078-109.642 109.714-109.642h1243.428c60.562 0 109.714 49.116 109.714 109.642v36.534h-600.428z"/>
<glyph unicode="" glyph-name="error" d="M517.12 261.846c42.24 0 72.278-29.098 72.278-71.338s-30.038-70.4-72.278-70.4c-43.178 0-71.338 28.16-71.338 70.4s29.098 71.338 71.338 71.338zM508.672 336.938c-20.65 0-30.038 1.878-31.914 30.976l-25.344 354.86c-1.878 37.546 15.958 69.462 65.706 69.462 49.792 0 67.626-31.914 65.75-69.462l-25.344-354.858c-1.878-29.098-11.264-30.976-31.914-30.976l-16.94-0.002zM0 448c0-282.77 229.23-512 512-512s512 229.23 512 512c0 282.77-229.23 512-512 512s-512-229.23-512-512z"/>
<glyph unicode="" glyph-name="delivery-drop" horiz-adv-x="682" d="M309.998 552.96c0-12.476-9.66-22.596-21.572-22.596-11.93 0-21.572 10.12-21.572 22.596 0 12.442 9.626 22.562 21.572 22.562 11.896 0 21.572-10.12 21.572-22.562zM494.422 552.96c0-12.476-9.626-22.596-21.538-22.596-11.93 0-21.64 10.12-21.64 22.596 0 12.442 9.694 22.562 21.64 22.562 11.894 0 21.538-10.12 21.538-22.562zM224.99 599.962l-105.506 10.99 105.54 9.762zM225.144 647.868l-74.36 10.752 74.428 10.018zM225.348 695.688l-48.896 10.684 48.964 10.12zM255.59 735.164c-9.028 0-16.436-7.748-16.47-17.118l-0.53-127.42c0-2.134 0.392-4.114 1.006-5.888h-3.174c-6.058 0.052-10.906-5.034-10.906-11.332-0.102-6.298 4.694-11.468 10.804-11.468l17.664-0.052c2.202 17.902 16.844 31.692 34.508 31.608 17.698-0.052 32.238-13.994 34.304-31.914l115.694-0.494c2.236 17.852 16.794 31.71 34.492 31.624 17.698-0.136 32.238-14.012 34.236-31.966h10.94c6.042-0.018 10.872 5.052 10.94 11.366 0 5.394-3.602 10.018-8.5 11.128 0.7 7.782 2.406 32.154-0.034 42.326-2.798 12.202-23.706 66.252-88.354 57.43-2.236 0.052-3.858-0.7-5.102-1.502l0.136 35.686c0 9.524-7.236 17.356-16.366 17.356l-155.288 0.664zM499.148 633.224c1.672-6.604 0.802-9.454 0.802-9.454l-59.118 0.75 0.136 36.232c0 0 0.17 5.034 5.256 5.034 35.586 4.832 51.184-25.922 52.924-32.562zM682.666 617.454c-1.262 190.448-155.254 343.792-343.704 342.546-188.52-1.298-340.26-156.706-338.962-347.136 0.53-71.116 22.34-137.080 59.204-191.762l287.454-485.102 283.904 494.558h-0.802c33.946 54.016 53.368 118.186 52.906 186.896zM342.988 384.068c-136.38-0.938-247.672 107.008-248.542 241.032-0.972 134.026 108.836 243.422 245.146 244.378 136.362 0.904 247.586-107.026 248.524-241.050 0.906-134.024-108.832-243.438-245.128-244.36z"/>
<glyph unicode="" glyph-name="card-ribbon" horiz-adv-x="890" d="M52.024 251.726v169.472l784.206-1.046v-169.272l-784.206 0.846zM24.642 483.596c-10.508-10.418-16.34-23.974-16.272-38.066l-0.2-451.028c0-14.246 5.722-27.892 16.34-38.4 12.222-12.222 29.562-19.122 47.706-19.122l743.446-0.958c35.66 0.068 64.376 25.756 64.376 57.412v451.116c0.134 14.002-5.61 27.626-16.272 38.156-11.954 12.222-29.63 19.256-48.038 19.256l-743.224 0.756c-18.344 0-35.618-6.902-47.862-19.122zM297.494 586.818c35.44-0.134 73.328 4.876 112.016 16.206 21.616-5.498 43.164-7.902 62.308-8.080 5.030 0 9.55 0.268 13.802 0.378 10.196 0.89 19.834 1.736 29.606 2.382 17.808-12.31 39.58-21.17 64.112-25.534 14.024-2.716 28.026-3.628 42.162-3.628 105.382 1.536 216.82 58.302 260.764 133.61l-58.858 25.956c-23.218-46.414-116.38-97.792-191.354-101.064 22.306 11.13 43.832 26.202 63.91 46.636 25.778 26.356 45.278 58.412 46.058 94.43 0.556 31.054-18.944 63.554-54.918 82.566-22.216 12.466-46.324 18.7-69.432 18.7-38.534 0-71.724-16.562-96.412-38.222-6.388-5.61-12.11-11.508-17.608-17.72-36.506 93.096-107.584 145.298-179.020 146.566-30.608 0.090-61.328-11.22-81.854-33.102-20.368-21.772-31.030-51.824-30.898-86.84 0-15.56 2.004-32.3 6.256-50.376 15.36-65.002 52.914-112.306 97.992-143.806-6.522-0.356-12.556-0.49-18.61-0.49-62.308 0-118.694 18.454-161.19 39.224-41.584 20.058-71.412 45.79-72.638 47.994l-53.248-34.704c13.802-15.36 44.166-39.402 94.52-64.512 48.952-23.996 115.778-46.48 192.534-46.57zM529.118 733.428c8.058 20.902 22.082 29.362 38.222 43.43 16.696 14.492 33.636 9.194 50.22 9.194h0.112c10.084 0 21.326 9.95 34.994 2.582 19.39-11.62 22.506-13.712 23.418-26.668 0.244-14.804-10.53-33.836-29.362-52.358-34.438-33.858-65.136-44.678-108.99-51.356-9.416 12.020-13.914 27.536-14.692 43.832 0.024 9.662 2.050 20.704 6.078 31.344zM282.602 801.548c-3.606 14.758-5.030 27.47-5.142 38.512 0.112 25.154 7.524 37.176 15.694 45.568 8.414 8.592 17.364 9.416 31.388 9.416h1.67c32.5 0 90.268-30.142 118.94-113.174 5.922-17.164 9.95-35.528 9.95-53.048-0.89-30.364-8.392-48.662-38.222-61.262-2.894-0.958-5.722-1.848-8.17-2.56-53.582 18.742-109.19 61.818-126.108 136.548z"/>
<glyph unicode="" glyph-name="card-pay-drop" horiz-adv-x="664" d="M288.546 688.538c10.53-0.034 21.794 1.45 33.298 4.812 6.434-1.638 12.834-2.356 18.534-2.406 1.502 0 2.834 0.068 4.096 0.12 3.038 0.274 5.906 0.512 8.806 0.7 5.29-3.67 11.758-6.298 19.064-7.594 4.164-0.802 8.328-1.076 12.526-1.076 31.334 0.46 64.46 17.34 77.534 39.732l-17.494 7.732c-6.894-13.806-34.594-29.082-56.9-30.054 6.638 3.31 13.038 7.8 18.996 13.876 7.662 7.834 13.466 17.356 13.704 28.074 0.17 9.234-5.632 18.892-16.332 24.558-6.604 3.704-13.772 5.564-20.634 5.564-11.468 0-21.334-4.916-28.672-11.366-1.894-1.672-3.602-3.43-5.24-5.274-10.872 27.682-32 43.212-53.23 43.588-9.096 0.018-18.228-3.328-24.338-9.848-6.058-6.468-9.234-15.412-9.198-25.822 0-4.626 0.598-9.608 1.86-14.968 4.574-19.32 15.736-33.4 29.132-42.752-1.928-0.102-3.738-0.136-5.53-0.136-18.534 0-35.294 5.478-47.94 11.656-12.374 5.974-21.23 13.62-21.606 14.268l-15.838-10.308c4.096-4.574 13.142-11.708 28.108-19.182 14.594-7.188 34.458-13.878 57.294-13.894zM357.41 732.126c2.406 6.212 6.57 10.752 11.366 14.934 4.966 4.3 10.002 4.762 14.934 4.762h0.034c3.004 0 6.332 0.938 10.394-1.262 5.768-3.464 6.708-5.086 6.964-8.942 0.068-4.404-3.14-10.564-8.738-16.076-10.24-10.070-19.37-13.534-32.392-15.53-2.798 3.566-4.13 8.056-4.37 12.902 0 2.88 0.614 6.038 1.808 9.212zM284.108 752.366c-1.076 4.386-1.502 8.174-1.536 11.452 0.034 7.492 2.236 13.944 4.676 16.436 2.492 2.542 5.172 5.684 9.336 5.684h0.494c9.66 0 26.828-11.844 35.362-36.54 1.774-5.102 2.97-12.014 2.97-17.22-0.274-9.028-2.492-15.19-11.366-18.944-0.87-0.29-1.706-0.904-2.44-1.11-15.906 5.598-32.46 18.040-37.496 40.242zM442.948 655.378l-220.262 0.222c-5.462 0-10.564-1.996-14.2-5.512-3.14-3.004-4.864-6.912-4.83-10.974l-0.068-129.98c0-4.096 1.706-8.038 4.864-11.076 3.602-3.516 8.738-5.512 14.132-5.512l219.136-0.274c10.564 0.018 17.8 7.424 17.8 16.538v129.996c0 4.044-0.392 7.954-3.532 11.008-3.534 3.55-7.578 5.564-13.040 5.564zM442.436 583.032l-221.866 0.238v48.844l221.866-0.29v-48.792zM674.1 617.454c-1.264 190.448-155.222 343.792-343.69 342.546-188.5-1.298-340.24-156.706-338.944-347.136 0.53-71.116 22.34-137.080 59.204-191.762l287.438-485.102 283.904 494.558h-0.802c33.946 54.016 53.368 118.186 52.89 186.896zM334.438 384.068c-136.362-0.938-247.672 107.008-248.542 241.032-0.956 134.026 108.852 243.422 245.146 244.378 136.362 0.904 247.604-107.026 248.524-241.050 0.922-134.024-108.834-243.438-245.128-244.36z"/>
<glyph unicode="" glyph-name="box" horiz-adv-x="876" d="M292.572 267.8l-121.906 63.586v275.090h121.906z"/>
<glyph unicode="" glyph-name="basket-drop" horiz-adv-x="676" d="M230.399 683.021l-14.241 57.302-41.732-0.184-0.202-0.403c-4.472-1.279-7.717-5.448-7.767-10.492 0.050-0.068 0.050-0.101 0.050-0.134 0-6.086 4.758-10.829 10.474-10.862l22.799 0.169 54.947-220.023 193.306 0.068 0.823 3.581 48.238 181.098-266.697-0.12zM431.961 520.517l-160.873-0.050-35.208 140.713 233.507 0.118-37.427-140.781zM277.612 464.881c-0.006-0.189-0.009-0.412-0.009-0.636 0-12.248 9.515-22.177 21.252-22.177 11.095 0 20.204 8.872 21.168 20.189 0.081 2.812 0.084 3.035 0.084 3.259 0 12.248-9.515 22.177-21.252 22.177-11.095 0-20.204-8.872-21.168-20.189zM406.353 487.914c-11.72-0.050-21.32-9.953-21.32-22.212 0.050-12.224 9.5-22.161 21.32-22.126 11.702 0.083 21.285 10.038 21.285 22.244-0.016 12.226-9.583 22.146-21.285 22.093zM355.358 648.586c-28.214-0.605-53.266-20.663-52.508-55.265 0.655-32.938 21.824-54.963 55.031-54.24 4.826 0.118 10.121 0.909 15.267 2.455 3.21 1.009 4.708 1.765 4.623 5.212l-0.118 5.564c-0.083 2.792-1.883 3.515-5.262 2.674-4.187-1.009-9.701-2.185-14.646-2.286-21.522-0.471-40.285 13.349-40.874 40.806-0.488 24.027 15.233 40.974 38.806 41.513 20.092 0.453 36.2-12.138 36.654-34.871 0.202-8.878-2.337-21.874-10.945-22.076-2.774-0.068-4.859 2.102-4.91 5.615l-0.42 20.109c-0.287 11.501-4.859 19.503-21.101 19.15-7.533-0.151-21.034-2.825-20.865-11.063 0.033-2.724 2.993-6.339 5.179-6.272 0.69 0.033 1.715 0.808 2.422 1.226 3.749 2.168 7.616 3.565 13.299 3.666 4.086 0.101 7.684-1.261 7.717-5.028l0.184-6.289c-2.085 0.202-5.212 0.539-8.374 0.488-14.543-0.337-22.816-7.684-22.615-18.259 0.202-9.162 5.564-16.763 16.73-16.511 6.793 0.151 12.745 3.278 17.403 8.238 3.059-6.070 9.046-7.634 14.593-7.516 17.234 0.387 26.145 16.124 25.775 34.67-0.637 29.56-21.706 48.963-51.045 48.29zM351.778 577.413c-3.53-0.083-5.75 1.951-5.801 4.943-0.101 4.187 2.774 7.684 9.736 7.818 2.422 0.068 4.927-0.134 7.314-0.504l0.169-6.541c-2.238-2.503-6.223-5.58-11.418-5.716zM669.066 612.151c-1.246 184.495-150.381 333.060-332.959 331.849-182.613-1.261-329.613-151.809-328.352-336.288 0.504-68.901 21.64-132.794 57.352-185.773l278.465-469.939 275.018 479.119h-0.758c32.856 52.307 51.704 114.467 51.233 181.032zM340.007 386.058c-132.105-0.909-239.93 103.672-240.787 233.507-0.909 129.851 105.472 235.809 237.508 236.735 132.087 0.874 239.863-103.672 240.769-233.523 0.858-129.836-105.454-235.829-237.491-236.72z"/>
<glyph unicode="" glyph-name="basket" horiz-adv-x="1136" d="M220.018 762.824l-48.982 197.176-143.588-0.654-0.71-1.308c-15.36-4.41-26.568-18.746-26.738-36.154 0.17-0.228 0.17-0.342 0.17-0.484 0-20.906 16.384-37.262 36.096-37.404l78.422 0.626 189.042-757.078 665.174 0.256 2.872 12.344 166.002 623.048-917.76-0.368zM913.578 203.72l-553.528-0.17-121.146 484.18 803.47 0.426-128.796-484.436zM455.652 88.604c-40.248-0.17-73.074-34.504-73.074-76.488 0.086-42.154 32.598-76.116 73.074-76.116 40.362 0.256 73.244 34.674 73.244 76.488 0 42.068-32.796 76.116-73.244 76.116zM825.486 91.562c-40.362-0.17-73.302-34.248-73.302-76.402 0.2-42.070 32.682-76.232 73.302-76.146 40.248 0.284 73.216 34.56 73.216 76.488 0 42.098-32.966 76.202-73.216 76.060zM650.040 644.408c-97.080-2.076-183.296-71.082-180.708-190.18 2.276-113.322 75.094-189.070 189.326-186.68 16.584 0.426 34.844 3.1 52.508 8.42 11.036 3.47 16.184 6.116 15.958 17.92l-0.398 19.2c-0.312 9.642-6.486 12.118-18.090 9.216-14.364-3.47-33.394-7.51-50.376-7.85-74.070-1.592-138.638 45.91-140.63 140.374-1.65 82.66 52.394 141 133.518 142.848 69.12 1.536 124.53-41.784 126.152-120.008 0.682-30.55-8.022-75.264-37.66-75.918-9.558-0.256-16.726 7.224-16.896 19.37l-1.422 69.206c-0.968 39.594-16.754 67.1-72.618 65.878-25.942-0.54-72.362-9.728-71.766-38.058 0.142-9.386 10.268-21.816 17.778-21.59 2.36 0.086 5.944 2.788 8.278 4.21 12.914 7.452 26.226 12.288 45.71 12.63 14.052 0.37 26.454-4.296 26.568-17.294l0.626-21.618c-7.14 0.682-17.948 1.848-28.786 1.65-50.062-1.166-78.536-26.482-77.796-62.834 0.682-31.516 19.172-57.656 57.544-56.832 23.352 0.54 43.832 11.292 59.876 28.302 10.524-20.878 31.118-26.312 50.262-25.884 59.25 1.308 89.912 55.466 88.69 119.268-2.222 101.772-74.698 168.502-175.648 166.254zM637.64 399.474c-12.202-0.284-19.798 6.712-19.94 17.038-0.342 14.392 9.586 26.454 33.536 26.88 8.306 0.256 16.952-0.456 25.174-1.706l0.598-22.5c-7.738-8.676-21.448-19.258-39.368-19.712z"/>
<glyph unicode="" glyph-name="apple" horiz-adv-x="834" d="M833.882 208.746c-33.538-97.28-124.194-269.52-227.636-271.389-68.62-1.3-90.631 40.649-169.071 40.649-78.398 0-102.889-39.392-167.769-41.952-109.739-4.168-269.403 248.647-269.403 469.125 0 202.55 131.41 302.962 254.727 304.813 66.122 1.181 128.581-44.594 168.952-44.594 40.47 0 116.346 55.042 196.088 46.952 33.354-1.382 127.1-13.454 187.265-101.428-159.647-104.174-144.503-322.072 26.848-402.178zM620.798 960c-120.593-4.859-218.974-131.35-205.21-235.987 111.404-8.659 218.36 116.266 205.21 235.987z"/>
<glyph unicode="" glyph-name="cup" horiz-adv-x="1458" d="M610.022-63.981c-82.332 0-162.237 16.138-237.453 47.946-72.657 30.744-137.881 74.712-193.877 130.727-56.015 55.996-99.983 121.22-130.708 193.858-31.827 75.253-47.946 155.139-47.946 237.471s16.138 162.218 47.946 237.453c11.748 27.755 43.744 40.755 71.518 29.007 27.755-11.748 40.737-43.762 28.988-71.518-26.093-61.712-39.336-127.309-39.336-194.96s13.243-133.23 39.336-194.96c25.234-59.62 61.357-113.207 107.38-159.23 46.004-46.022 99.591-82.146 159.23-107.361 61.712-26.112 127.309-39.317 194.96-39.317s133.249 13.205 194.96 39.317c59.639 25.234 113.226 61.338 159.23 107.361s82.127 99.61 107.361 159.23c26.093 61.731 39.336 127.309 39.336 194.96s-13.243 133.23-39.336 194.96c-11.73 27.755 1.233 59.769 29.007 71.518 27.755 11.73 59.769-1.251 71.499-29.007 31.827-75.235 47.965-155.139 47.965-237.453 0-82.332-16.138-162.218-47.965-237.471-30.725-72.639-74.712-137.881-130.708-193.858-56.015-56.015-121.22-100.002-193.896-130.727-75.272-31.809-155.176-47.946-237.49-47.946zM610.022 568.081c-78.111 0-154 6.313-225.574 18.753-70.061 12.197-133.286 29.791-187.975 52.28-57.472 23.646-103.326 51.906-136.312 83.995-21.61 21.013-22.077 55.548-1.083 77.14 21.013 21.592 55.567 22.077 77.159 1.083 22.638-22.040 57.827-43.221 101.757-61.301 47.349-19.481 102.897-34.853 165.15-45.686 65.392-11.375 134.986-17.146 206.858-17.146 71.854 0 141.448 5.771 206.84 17.146 62.254 10.833 117.839 26.205 165.169 45.686 43.912 18.080 79.082 39.28 101.739 61.301 21.592 21.013 56.146 20.527 77.159-1.083 21.013-21.592 20.546-56.127-1.083-77.14-32.967-32.089-78.84-60.348-136.312-83.995-54.67-22.507-117.895-40.083-187.956-52.28-71.537-12.44-147.425-18.753-225.536-18.753zM1121.798 711.303c-13.691 0-27.438 5.136-38.028 15.447-22.656 22.040-57.827 43.221-101.739 61.301-47.349 19.481-102.916 34.853-165.169 45.686-65.392 11.375-134.986 17.146-206.84 17.146-71.873 0-141.467-5.771-206.858-17.146-62.254-10.833-117.802-26.205-165.15-45.686-43.931-18.080-79.101-39.28-101.757-61.301-21.592-21.013-56.146-20.527-77.159 1.083-21.013 21.592-20.527 56.127 1.083 77.14 32.985 32.089 78.84 60.348 136.312 83.995 54.67 22.507 117.914 40.083 187.975 52.28 71.555 12.44 147.444 18.753 225.574 18.753 78.111 0 154-6.313 225.555-18.753 70.061-12.197 133.305-29.791 187.956-52.28 57.472-23.646 103.326-51.906 136.312-83.995 21.61-21.013 22.096-55.548 1.083-77.14-10.721-11.001-24.916-16.53-39.149-16.53zM1213.6 214.021c-16.567 0-33.116 1.681-49.59 5.080-32.294 6.649-62.31 19.444-89.281 38.047-24.804 17.109-31.024 51.066-13.934 75.87 17.109 24.804 51.084 31.061 75.889 13.952 14.868-10.254 31.491-17.333 49.403-21.031 17.875-3.68 35.955-3.773 53.662-0.243 17.146 3.437 33.284 10.049 47.984 19.724 14.681 9.675 27.158 21.853 37.094 36.254 10.254 14.849 17.314 31.472 20.994 49.366 3.698 17.912 3.792 35.974 0.28 53.68-3.437 17.146-10.049 33.284-19.724 47.984s-21.872 27.176-36.254 37.094c-14.886 10.236-31.491 17.314-49.403 21.013-17.893 3.698-35.955 3.792-53.68 0.261-29.549-5.884-58.275 13.299-64.159 42.847s13.299 58.275 42.847 64.159c32.126 6.388 64.775 6.257 97.032-0.411 32.294-6.649 62.328-19.462 89.281-38.047 26.018-17.95 48.040-40.475 65.485-66.96 17.427-26.485 29.38-55.642 35.563-86.647 6.388-32.089 6.257-64.756-0.392-97.032-6.668-32.294-19.481-62.328-38.066-89.262-17.95-26.037-40.456-48.040-66.942-65.485-26.504-17.427-55.642-29.38-86.647-35.563-15.708-3.101-31.566-4.651-47.442-4.651z"/>
<glyph unicode="" glyph-name="edit" d="M925.344 648.89l-207.832 207.818c-15.65 15.654-41.006 15.654-56.658 0l-508.256-508.252c-5.602-5.59-9.416-12.712-10.958-20.472l-51.944-259.776c-2.626-13.138 1.478-26.72 10.958-36.19 7.592-7.59 17.81-11.74 28.33-11.74 2.618 0 5.244 0.256 7.86 0.786l259.772 51.954c7.76 1.542 14.882 5.354 20.472 10.958l508.256 508.254c15.654 15.64 15.654 41.020 0 56.66zM194.814 185.234l17.752 88.746 130.040-130.036-88.75-17.756-59.042 59.046zM385.538 165.768l-151.146 151.148 313.056 313.056 151.158-151.156-313.068-313.048zM730.986 511.196l-151.156 151.156 109.354 109.366 151.156-151.158-109.354-109.364z"/>
<glyph unicode="" glyph-name="enter" d="M914.518 866.82h-474.46c-23.016 0-41.838-18.822-41.838-41.824v-236.156h-291.514c-23.016 0-41.838-18.822-41.838-41.824v-474.504c0-23 18.822-41.824 41.838-41.824h807.81c23.034 0 41.854 18.824 41.854 41.824v752.484c0.002 23.002-18.82 41.824-41.852 41.824zM735.118 319.622c0-1.268-0.23-2.478-0.346-3.69 0.116-1.268 0.346-2.45 0.346-3.716v-4.9c0-23.002-18.792-41.824-41.824-41.824h-285.85v-64.596c0-23-14.398-29.688-32.010-14.874l-115.038 96.792c-17.612 14.816-17.612 39.086 0 53.902l115.038 96.792c17.612 14.816 32.010 8.128 32.010-14.874v-64.596h239.124v277.864c0 23.002 18.852 41.824 41.854 41.824h4.872c23.032 0 41.824-18.822 41.824-41.824v-312.28z"/>
<glyph unicode="" glyph-name="odnoklassniki" d="M512 442.941c114.217 0 206.807 92.815 206.807 207.34 0 114.483-92.59 207.319-206.807 207.319s-206.807-92.836-206.807-207.319c0-114.524 92.59-207.34 206.807-207.34zM512 752.271c56.197 0 101.745-45.67 101.745-101.99s-45.548-102.011-101.745-102.011c-56.197 0-101.745 45.67-101.745 102.011s45.548 101.99 101.745 101.99zM750.408 417.649c-11.674 23.511-44.012 43.090-86.999 9.114-58.102-45.875-151.409-45.875-151.409-45.875s-93.307 0-151.409 45.875c-42.988 33.956-75.325 14.397-86.999-9.114-20.337-41.001 2.642-60.805 54.559-94.208 44.319-28.529 105.247-39.199 144.568-43.172l-32.829-32.911c-46.244-46.367-90.89-91.136-121.856-122.184-18.514-18.555-18.514-48.66 0-67.236l5.591-5.591c18.514-18.555 48.538-18.555 67.052 0l121.876 122.184c46.244-46.367 90.89-91.116 121.876-122.163 18.514-18.575 48.538-18.575 67.072 0l5.591 5.591c18.514 18.575 18.514 48.66 0 67.236l-154.808 155.197c39.363 4.055 99.635 14.787 143.585 43.069 51.876 33.362 74.875 53.187 54.538 94.188z"/>
<glyph unicode="" glyph-name="trash-can" d="M216.712 582.45v-480.97h53.518v-106.23h480.206v106.23h53.518v533.512h-587.242v-52.542zM644.5 582.45h52.39v-479.294h-52.39v479.294zM483.18 582.45h54.366v-479.294h-54.366v479.294zM323.664 582.45h52.396v-479.294h-52.396v479.294zM749.078 796.604v52.6h-52.188v52.546h-373.226v-52.546h-51.548v-52.6h-108.116v-107.924h693.24v107.924h-108.162zM644.5 796.604h-268.124v52.6h268.124v-52.6z"/>
<glyph unicode="" glyph-name="comment" d="M797.69 784h-571.38c-86.056 0-155.83-69.774-155.83-155.83v-272.704c0-86.054 69.774-155.828 155.83-155.828h337.964l140.8-213.052 45.312 213.052h47.302c86.056 0 155.828 69.774 155.828 155.828v272.704c0.002 86.056-69.77 155.83-155.826 155.83z"/>
<glyph unicode="" glyph-name="twitter" d="M921.6 679.67c-30.106-14.090-62.505-23.532-96.502-27.709 34.611 21.668 61.317 56.177 73.81 97.198-32.44-20.111-68.444-34.714-106.619-42.68-30.7 34.181-74.363 55.542-122.716 55.542-92.815 0-168.059-78.664-168.059-175.821 0-13.66 1.393-27.156 4.362-40.1-139.776 7.434-263.557 77.373-346.44 183.747-14.541-26.030-22.753-56.156-22.753-88.289 0-61.071 29.635-114.852 74.772-146.35-27.566 0.799-53.514 8.786-76.206 21.934-0.020-0.737-0.020-1.475-0.020-2.253 0-85.135 57.958-156.201 134.82-172.38-14.070-4.014-28.918-6.103-44.216-6.103-10.813 0-21.422 1.106-31.621 3.174 21.34-69.898 83.374-120.689 156.938-122.102-57.549-47.247-130.007-75.264-208.753-75.264-13.578 0-26.911 0.819-40.059 2.519 74.383-49.971 162.734-79.032 257.618-79.032 309.166 0 478.126 267.878 478.126 500.183 0 7.537-0.102 15.155-0.43 22.692 32.891 24.842 61.44 55.808 83.948 91.095z"/>
<glyph unicode="" glyph-name="vk" d="M503.214 216.269h48.968c0 0 14.787 1.638 22.344 9.789 6.943 7.455 6.738 21.504 6.738 21.504s-0.963 65.7 29.532 75.387c30.065 9.544 68.669-63.508 109.588-91.587 30.945-21.258 54.456-16.609 54.456-16.609l109.404 1.516c0 0 57.242 3.543 30.085 48.538-2.212 3.666-15.811 33.28-81.347 94.106-68.608 63.672-59.392 53.371 23.224 163.492 50.319 67.072 70.431 108.012 64.143 125.563-6.001 16.712-43.008 12.308-43.008 12.308l-123.187-0.758c0 0-9.134 1.249-15.913-2.826-6.615-3.932-10.854-13.189-10.854-13.189s-19.517-51.896-45.507-96.031c-54.845-93.143-76.78-98.079-85.75-92.283-20.869 13.476-15.647 54.129-15.647 83.046 0 90.255 13.701 127.898-26.665 137.646-13.373 3.215-23.245 5.366-57.487 5.714-43.95 0.43-81.142-0.143-102.216-10.465-14.008-6.861-24.822-22.159-18.248-23.040 8.151-1.085 26.583-4.956 36.352-18.268 12.636-17.183 12.186-55.747 12.186-55.747s7.25-106.271-16.937-119.46c-16.609-9.032-39.383 9.441-88.289 93.942-25.047 43.274-43.971 91.116-43.971 91.116s-3.645 8.95-10.158 13.722c-7.905 5.796-18.924 7.639-18.924 7.639l-117.064-0.758c0 0-17.572-0.492-24.023-8.151-5.734-6.799-0.471-20.849-0.471-20.849s91.648-214.405 195.4-322.437c95.212-99.062 203.244-92.57 203.244-92.57v0z"/>
<glyph unicode="" glyph-name="facebook" d="M710.062 422.851h-147.743v-384.451h-150.548v384.451h-104.571v138.404h104.571c0 0 0 56.689 0 118.129 0 92.897 61.768 178.217 204.063 178.217 57.61 0 100.209-5.366 100.209-5.366l-3.297-129.167c0 0-43.5 0.389-90.911 0.389-51.282 0-59.515-22.979-59.515-61.133 0-4.751 0-6.41 0-6.533 0-10.711 0-36.639 0-94.515h154.481l-6.738-138.424z"/>
<glyph unicode="" glyph-name="yandex" d="M704.246 837.12h-130.089c-127.775 0-236.196-92.856-236.196-273.060 0-108.134 52.552-187.863 146.043-227.185l-174.531-301.486c-5.714-9.81 0-17.449 9.093-17.449h81.019c6.84 0 11.407 2.171 13.722 7.639l158.577 296.018h57.057v-296.018c0-3.277 3.441-7.639 7.967-7.639h70.758c6.861-0.020 9.134 3.256 9.134 8.684v799.539c0 7.7-4.567 10.957-12.554 10.957zM628.941 391.455h-47.923c-75.305 0-148.316 52.429-148.316 183.501 0 136.581 68.424 192.266 138.035 192.266h58.204v-375.767z"/>
<glyph unicode="" glyph-name="mail-ru" d="M488.878 655.268c58.88 0 114.237-26.020 154.88-66.775v-0.154c0 19.558 13.158 34.314 31.437 34.314l4.618 0.020c28.59 0 34.458-27.034 34.458-35.615l0.143-304.159c-2.017-19.917 20.552-30.198 33.065-17.418 48.855 50.186 107.274 258.017-30.362 378.44-128.266 112.271-300.38 93.778-391.905 30.679-97.3-67.103-159.57-215.644-99.082-355.164 65.925-152.166 254.587-197.55 366.715-152.259 56.791 22.897 83.016-53.852 24.044-78.92-89.098-37.949-337.091-34.12-452.946 166.554-78.285 135.506-74.127 373.914 133.468 497.439 158.802 94.515 368.179 68.362 494.438-63.498 131.973-137.851 124.273-395.981-4.454-496.323-58.317-45.588-144.937-1.229-144.394 65.208l-0.604 21.719c-40.612-40.305-94.648-63.805-153.528-63.805-116.337 0-218.696 102.339-218.696 218.665 0.010 117.494 102.359 221.051 218.706 221.051v0 0 0zM635.29 442.644c-4.383 85.176-67.615 136.397-143.964 136.397h-2.888c-88.105 0-136.98-69.294-136.98-148.009 0-88.125 59.116-143.8 136.643-143.8 86.446 0 143.258 63.314 147.384 138.209l-0.195 17.203z"/>
<glyph unicode="" glyph-name="star" d="M512.205 195.338v0l184.668-141.865c9.196-9.277 21.934-15.073 36.065-15.073 28.078 0 50.811 22.733 50.811 50.79 0 6.124-1.27 11.878-3.256 17.326 0.123 0 0.205 0.061 0.328 0.143l-74.322 237.65 194.253 150.2c12.575 9.216 20.849 24.023 20.849 40.899 0 27.279-21.606 49.398-48.681 50.524 0.082 0.061 0.082 0.205 0.143 0.266h-234.394l-78.664 235.807h-0.082c-6.451 20.521-25.457 35.594-48.189 35.594-24.064 0-44.052-16.794-49.336-39.199-0.061 0-0.123 0-0.123 0l-77.476-232.202h-230.461c-0.41 0.061-0.737 0.123-1.126 0.123-28.078 0-50.79-22.733-50.79-50.729 0-15.462 7.004-29.061 17.92-38.4-0.061-0.123-0.123-0.205-0.205-0.266l197.202-151.593-73.4-234.926c-2.929-6.533-4.731-13.599-4.731-21.197 0-28.078 22.733-50.79 50.729-50.79 11.53 0 22.077 3.994 30.536 10.404 0.123-0.061 0.266-0.123 0.328-0.205l158.003 121.139z"/>
<glyph unicode="" glyph-name="list-view" d="M930.918 152.397h-837.837c-51.405 0-93.082-41.651-93.082-93.082 0-51.43 41.677-93.082 93.082-93.082h837.862c51.405 0 93.082 41.651 93.082 93.082-0.026 51.43-41.702 93.082-93.107 93.082zM93.082 710.963h837.862c51.379 0 93.056 41.677 93.056 93.107s-41.677 93.082-93.082 93.082h-837.837c-51.405 0-93.082-41.651-93.082-93.082 0-51.43 41.677-93.107 93.082-93.107zM930.918 524.774h-837.837c-51.405 0-93.082-41.651-93.082-93.082 0-51.43 41.677-93.082 93.082-93.082h837.862c51.405 0 93.082 41.651 93.082 93.082-0.026 51.43-41.702 93.082-93.107 93.082z"/>
<glyph unicode="" glyph-name="zoom" d="M996.736 94.899l-223.437 223.462c40.678 64.563 64.563 140.774 64.563 222.694 0 231.373-187.622 418.893-418.918 418.893-231.373 0-418.944-187.52-418.944-418.893 0-231.296 187.571-418.918 418.944-418.918 81.92 0 158.106 23.885 222.669 64.563l223.437-223.462c36.378-36.326 95.309-36.326 131.686 0 36.352 36.378 36.352 95.309 0 131.661zM139.622 541.056c0 154.035 125.261 279.245 279.322 279.245 153.958 0 279.245-125.235 279.245-279.245s-125.286-279.296-279.245-279.296c-154.061 0.026-279.322 125.312-279.322 279.296z"/>
<glyph unicode="" glyph-name="trolley-cart" d="M996.454 445.952c2.586 0.845 4.941 1.92 7.27 3.251 2.176 1.229 4.198 2.509 6.067 4.096 1.92 1.613 3.533 3.43 5.12 5.427 1.587 1.971 2.995 3.942 4.173 6.17 1.126 2.176 1.92 4.429 2.637 6.835 0.794 2.56 1.331 5.069 1.587 7.782 0.102 1.203 0.691 2.227 0.691 3.456v226.944c0 21.76-17.638 39.373-39.398 39.373-2.816 0-719.309 0-719.309 0l-52.557 132.659c-0.051 0.128-0.179 0.23-0.23 0.333-1.51 3.712-3.917 6.81-6.4 9.83-0.768 0.947-1.203 2.176-2.048 3.046-2.176 2.202-4.992 3.584-7.603 5.197-1.664 1.024-3.072 2.509-4.838 3.277-1.306 0.563-2.867 0.512-4.224 0.947-3.558 1.050-7.142 2.125-10.906 2.176-0.128 0-0.23 0.077-0.358 0.077h-136.73c-21.76 0-39.398-17.638-39.398-39.398s17.638-39.373 39.398-39.373h109.978l52.864-133.402c0.026-0.051 0.051-0.102 0.077-0.128l157.312-396.928c1.485-4.070 37.402-99.686 144.205-99.686h480.794c21.76 0 39.398 17.613 39.398 39.373s-17.638 39.398-39.398 39.398h-480.819c-41.318 0-60.774 29.107-67.635 42.624l557.082 125.235c1.203 0.256 2.048 1.050 3.2 1.408zM1024 60.058c0-54.377-44.081-98.458-98.458-98.458s-98.458 44.081-98.458 98.458c0 54.377 44.081 98.458 98.458 98.458s98.458-44.081 98.458-98.458zM583.424 60.058c0-54.377-44.081-98.458-98.458-98.458s-98.458 44.081-98.458 98.458c0 54.377 44.081 98.458 98.458 98.458s98.458-44.081 98.458-98.458z"/>
<glyph unicode="" glyph-name="packed-box" d="M938.266 712.806l-414.438 243.814c-7.654 4.506-17.101 4.506-24.755 0l-414.438-243.814c-7.475-4.378-12.032-12.365-12.032-21.018v-487.578c0-8.653 4.557-16.64 12.032-21.018l414.438-243.814c3.814-2.253 8.090-3.379 12.365-3.379s8.525 1.126 12.365 3.379l414.438 243.814c7.475 4.378 12.032 12.365 12.032 21.018v487.578c0.026 8.653-4.531 16.64-12.006 21.018zM511.437 478.874l-117.786 67.738 369.664 212.557 116.48-68.506-368.358-211.789zM511.437 907.315l106.829-62.848-371.328-213.504-103.834 59.699 368.333 216.653zM121.344 646.938l121.907-70.093v-240.87l121.907-68.173v238.95l122.061-70.17c0-0.282-0.154-0.486-0.154-0.768v-432.794l-365.722 215.117v428.8zM535.859 3.021v432.768c0 0.282-0.154 0.486-0.154 0.768l365.85 210.355v-428.8l-365.696-215.091z"/>
<glyph unicode="" glyph-name="home" d="M839.654 544.998v244.941h-143.36v-96.998l-184.294 190.259-512-528.461h122.854v-341.939h317.44v279.782h143.36v-279.782h317.44v341.939h122.906z"/>
<glyph unicode="" glyph-name="notepad" d="M877.875 960h-47.437v-1024h47.437c52.403 0 94.925 45.85 94.925 102.4v819.2c0 56.55-42.522 102.4-94.925 102.4zM118.426 857.6v-102.4h92.723c25.267 0 45.747-22.938 45.747-51.2s-20.48-51.2-45.747-51.2h-114.227c-25.267 0-45.722-22.938-45.722-51.2s20.454-51.2 45.696-51.2h114.227c25.267 0 45.747-22.938 45.747-51.2s-20.48-51.2-45.747-51.2h-114.202c-25.267 0-45.722-22.938-45.722-51.2s20.454-51.2 45.696-51.2h114.227c25.267 0 45.747-22.938 45.747-51.2s-20.48-51.2-45.747-51.2h-114.202c-25.267 0-45.722-22.938-45.722-51.2s20.454-51.2 45.696-51.2h21.504v-102.4c0-56.55 42.522-102.4 94.925-102.4h569.6v1024h-569.574c-52.429 0-94.925-45.85-94.925-102.4z"/>
<glyph unicode="" glyph-name="delete" d="M681.6 447.59l255.949 255.974c46.976 46.95 46.976 123.11 0 170.035-46.925 46.976-123.059 46.976-170.035 0l-255.974-255.949-255.053 255.053c-46.95 46.925-123.162 46.976-170.086 0-46.976-46.95-46.899-123.085 0-170.086l255.078-255.053-254.234-254.208c-46.925-46.976-46.925-123.11 0-170.061 46.976-46.899 123.136-46.899 170.086 0l254.208 254.234 255.104-255.053c46.925-47.027 123.059-47.027 170.061 0 46.899 46.899 46.899 123.059 0 170.010l-255.104 255.104z"/>
<glyph unicode="" glyph-name="calendar" d="M102.4 465.101h136.602v-136.602h-136.602v136.602zM272.998 465.101h136.602v-136.602h-136.602v136.602zM443.802 465.101h136.397v-136.602h-136.397v136.602zM614.4 465.101h136.602v-136.602h-136.602v136.602zM784.998 465.101h136.602v-136.602h-136.602v136.602zM102.4 294.4h136.602v-136.499h-136.602v136.499zM272.998 294.4h136.602v-136.499h-136.602v136.499zM443.802 294.4h136.397v-136.499h-136.397v136.499zM614.4 294.4h136.602v-136.499h-136.602v136.499zM784.998 294.4h136.602v-136.499h-136.602v136.499zM102.4 55.501c0-37.683 30.515-68.301 68.198-68.301h68.403v136.499h-136.602v-68.198zM272.998 123.699h136.602v-136.499h-136.602v136.499zM443.802 123.699h136.397v-136.499h-136.397v136.499zM614.4 123.699h136.602v-136.499h-136.602v136.499zM784.998-12.8h68.403c37.683 0 68.198 30.618 68.198 68.301v68.198h-136.602v-136.499zM853.402 738.099h-136.602v136.602c0 18.842-15.283 34.099-34.202 34.099-18.739 0-33.997-15.258-33.997-34.099v-136.602h-273.203v136.602c0 18.842-15.283 34.099-33.997 34.099-18.918 0-34.202-15.258-34.202-34.099v-136.602h-136.602c-37.683 0-68.198-30.515-68.198-68.198v-170.701h819.2v170.701c0 37.683-30.515 68.198-68.198 68.198zM375.398 601.6h-68.198v68.301h68.198v-68.301zM716.8 601.6h-68.198v68.301h68.198v-68.301z"/>
<glyph unicode="" glyph-name="metro-sign" d="M678.387 359.112l69.081-199.88h-55.779v-87.958h332.311v87.958h-63.426l-238.708 640.768-209.865-394.514-209.865 394.514-238.708-640.768h-63.428v-87.958h332.313v87.958h-55.78l69.081 199.88 166.388-295.112 166.386 295.112z"/>
<glyph unicode="" glyph-name="gplus" d="M582.717 789.34h-189.297c-25.108 0-52.040-3.011-80.732-8.97-29-6.943-56.975-21.75-83.866-44.421-39.199-38.707-58.757-81.859-58.757-129.413 0-39.342 13.804-73.83 41.472-103.424 26.399-31.805 64.799-47.985 115.2-48.64 9.503 0 19.661 0.635 30.392 1.905-1.782-5.079-3.727-10.588-5.775-16.609-2.396-5.714-3.564-12.82-3.564-21.381 0-14.254 3.113-26.46 9.359-36.577 5.345-10.445 11.407-20.275 18.248-29.45-22.077-0.614-49.828-3.461-83.231-8.458-33.772-5.98-65.966-17.94-96.604-35.84-27.279-16.65-46.182-36.004-56.566-57.999-10.752-21.996-16.118-41.943-16.118-59.884 0-36.741 16.527-68.342 49.521-94.781 32.686-28.262 82.166-42.701 148.46-43.336 79.217 1.27 139.776 20.623 181.801 58.102 40.468 36.229 60.744 77.763 60.744 124.703-0.614 33.034-7.946 59.822-22.159 80.282-15.012 20.152-32.502 38.584-52.511 55.296l-32.072 26.911c-4.649 4.751-9.441 10.24-14.356 16.548-5.755 6.615-8.663 14.95-8.663 25.047 0 10.383 2.847 19.497 8.479 27.382 4.772 7.557 10.015 14.316 15.667 20.316 9.851 8.827 19.149 17.49 27.873 25.989 7.885 8.499 15.38 17.777 22.426 27.853 14.377 20.787 21.893 48.497 22.426 83.149 0 18.903-2.048 35.41-6.205 49.582-5.079 14.152-10.875 26.46-17.428 36.844-6.84 11.059-13.783 20.316-20.91 27.873-7.455 7.25-14.111 12.759-20.091 16.527h58.388l58.45 34.877zM478.945 261.243c15.667-18.268 23.491-39.67 23.491-64.246 0-30.249-11.469-54.948-34.345-74.179-23.511-19.497-57.549-29.594-102.175-30.228-49.705 0.614-88.904 11.96-117.494 33.997-30.147 22.057-45.199 50.074-45.199 84.091 0 17.326 3.441 32.133 10.363 44.421 6.021 11.633 13.435 21.402 22.18 29.327 9.032 7.537 17.92 13.353 26.665 17.449 8.745 3.789 15.524 6.636 20.337 8.52 20.48 6.308 40.55 10.875 60.129 13.701 19.907 1.884 32.236 2.54 37.069 1.884 8.131 0 15.196-0.307 21.279-0.942 35.226-25.231 61.153-46.469 77.701-63.795zM448.225 546.161c-2.294-12.923-7.455-25.539-15.442-37.827-16.63-17.388-37.376-26.522-62.3-27.505-19.702 0-37.253 6.164-52.572 18.473-15.34 12.308-27.873 27.279-37.54 44.954-20.070 37.868-30.044 74.301-30.044 109.343-0.655 26.501 6.226 50.483 20.562 71.967 16.998 20.5 38.339 31.048 63.959 31.703 19.395-0.655 36.536-6.472 51.466-17.551 14.582-11.653 26.378-26.829 35.348-45.425 19.087-38.81 28.59-77.292 28.59-115.487 0.020-8.827-0.676-19.702-2.028-32.645zM794.993 473.354v105.329h-53.043v-105.329h-106.127v-52.654h106.127v-105.329h53.043v105.329h106.127v52.654h-106.127z"/>
<glyph unicode="" glyph-name="chat" d="M954.163 857.6h-500.352c-38.554 0-69.811-42.419-69.811-80.998v-325.786c0-38.579 31.258-54.016 69.811-54.016h325.811l141.978-143.821v143.821h32.563c38.579 0 69.837 15.437 69.837 54.016v325.786c0 38.579-31.258 80.998-69.837 80.998zM332.8 402.816v326.784h-246.246c-43.392 0-86.554-57.677-86.554-101.094v-366.515c0-43.366 43.162-69.99 86.554-69.99h41.446v-152.55l154.906 152.55h366.541c43.392 0 67.354 26.624 67.354 69.99v83.61h-310.989c-38.554 0-73.011 18.637-73.011 57.216z"/>
<glyph unicode="" glyph-name="refrigerator" d="M879.283 848.23h-144.486c-3.635 19.917-20.019 35.123-40.755 35.123h-104.013v33.664c0 13.005-5.683 25.267-15.667 33.408-9.933 8.166-23.142 11.341-35.507 8.576l-403.174-88.294c-19.328-4.173-33.28-21.734-33.28-42.035v-788.301c0-21.248 15.258-39.475 35.994-42.47l403.277-61.466c2.278-0.358 4.326-0.435 6.349-0.435 10.035 0 19.917 3.661 27.571 10.291 7.629 6.861 11.725 16.23 13.286 26.368h105.165c22.298 0 39.91 17.536 41.626 39.552h143.616c23.501 0 42.317 19.251 42.317 43.11v749.798c0 23.731-18.842 43.11-42.317 43.11zM186.829 794.010l318.72 69.709v-24.781l0.051-224.102c0-0.256-0.051-0.333-0.051-0.461 0-0.205 0.051-0.256 0.051-0.307l0.026-185.933c0-0.179-0.077-0.486-0.077-0.589 0-0.23 0.077-0.41 0.077-0.768l0.051-185.344c-0.026-0.384-0.128-0.666-0.128-1.050 0-0.23 0.102-0.538 0.128-0.896v-184.141c0 0 0-0.077 0-0.077s0-0.23 0-0.307v-2.995c0-0.64-0.128-0.819-0.128-1.382l0.102-21.76-318.822 48.589v716.595zM837.171 98.278h-246.835v99.226h179.302c23.475 0 42.317 19.174 42.317 42.931 0 23.885-18.816 43.059-42.317 43.059h-179.533l-0.026 101.018h179.558c23.475 0 42.317 19.226 42.317 43.085 0 23.706-18.816 42.931-42.317 42.931h-179.558l-0.026 100.864h179.584c23.475 0 42.317 19.226 42.317 43.034 0 23.757-18.816 42.931-42.317 42.931h-179.584v104.73h247.117v-663.808z"/>
<glyph unicode="" glyph-name="old-phone" d="M780.058 908.621c-381.082-21.837-707.405-353.869-728.73-741.299-5.299-94.746 160.563-177.152 160.563-177.152 14.515-7.27 34.509-0.742 44.237 14.413l149.658 232.064c9.856 15.155 8.55 36.992-2.739 48.538l-90.214 91.827c-11.341 11.52-10.163 31.514 2.509 44.39l226.867 230.81c12.672 12.902 32.358 14.131 43.674 2.611l84.966-86.477c11.315-11.469 32.435-12.211 46.822-1.408l241.254 179.891c14.438 10.65 18.253 30.106 8.474 43.034-0.026 0-94.182 124.134-187.341 118.758z"/>
<glyph unicode="" glyph-name="e-mail" d="M508.262 399.232l431.872 406.4c-3.738 0.461-7.526 0.768-11.392 0.768h-833.51c-7.526 0-14.797-0.973-21.862-2.637l434.893-404.531zM551.706 264.346c-12.186-11.469-27.674-17.203-43.187-17.203-15.386 0-30.771 5.658-42.931 16.947l-465.587 433.101v-510.925c0-53.402 42.624-96.666 95.232-96.666h833.536c52.557 0 95.232 43.264 95.232 96.64v522.522l-472.294-444.416z"/>
<glyph unicode="" glyph-name="people" d="M332.8 550.4c0-56.554-45.846-102.4-102.4-102.4s-102.4 45.846-102.4 102.4c0 56.554 45.846 102.4 102.4 102.4s102.4-45.846 102.4-102.4zM896 550.4c0-56.554-45.846-102.4-102.4-102.4s-102.4 45.846-102.4 102.4c0 56.554 45.846 102.4 102.4 102.4s102.4-45.846 102.4-102.4zM665.6 601.6c0-84.831-68.769-153.6-153.6-153.6s-153.6 68.769-153.6 153.6c0 84.831 68.769 153.6 153.6 153.6s153.6-68.769 153.6-153.6zM1023.718 187.597c-3.968 136.32-105.37 245.453-230.093 245.453-38.938 0-75.597-10.65-107.75-29.44 72.013-53.325 121.626-138.778 131.174-237.235h195.507c6.298 0.026 11.443 5.658 11.443 12.646v6.426c0 0.717-0.179 1.408-0.282 2.15zM338.176 403.635c-32.128 18.79-68.813 29.44-107.75 29.44-124.672 0-226.202-109.133-230.17-245.453-0.051-0.768-0.256-1.459-0.256-2.176v-6.426c0-6.989 5.12-12.621 11.418-12.621h195.533c9.523 98.458 59.187 183.91 131.226 237.235zM512.026 427.674c-152.371 0-276.429-130.022-281.318-292.531-0.102-0.819-0.307-1.69-0.307-2.534v-7.603c0-8.371 6.298-9.805 14.003-9.805h535.168c7.706 0 14.029 1.434 14.029 9.805v7.603c0 0.845-0.179 1.715-0.307 2.56-4.915 162.483-128.845 292.506-281.267 292.506z"/>
<glyph unicode="" glyph-name="percent" d="M256.589 472.934c-139.085 0-205.389 93.875-205.389 217.83 0 124.058 66.304 218.035 205.389 218.035 139.341 0 205.44-93.978 205.44-218.035 0-123.955-66.074-217.83-205.44-217.83zM328.269 47.053c-22.886-34.176-36.454-41.395-64.768-41.395h-62.336c-33.715 0-43.238 24.243-21.478 57.062l527.002 793.267c23.040 34.202 36.403 41.318 64.794 41.318h62.080c33.997 0 43.238-24.243 21.837-57.011l-527.13-793.242zM256.589 791.91c-39.117 0-56.704-38.451-56.704-101.146 0-62.643 17.587-101.043 56.704-101.043 39.219 0 56.704 38.4 56.704 101.043 0 62.694-17.459 101.146-56.704 101.146zM767.462-12.8c-137.856 0-205.542 94.003-205.542 217.856 0 124.006 66.355 217.984 205.542 217.984 139.085 0 205.338-93.978 205.338-217.984 0-123.853-66.253-217.856-205.338-217.856zM767.462 306.278c-39.296 0-56.832-38.4-56.832-101.222 0-62.618 17.51-101.018 56.832-101.018 39.168 0 56.73 38.426 56.73 101.018 0 62.822-17.536 101.222-56.73 101.222z"/>
<glyph unicode="" glyph-name="key-tool" d="M629.837 194.816l-106.65 106.982c-76.595-31.949-167.552-16.87-229.837 45.466-62.336 62.285-76.211 153.907-44.262 230.477l160.512-158.106 110.95 113.382-86.861 84.429-73.677 73.651c76.57 31.949 168.166 16.845 230.477-45.44 62.362-62.31 77.414-153.882 45.491-230.477l280.397-280.371c67.226 86.605 107.622 195.072 107.622 313.19 0 282.778-229.222 512-512 512s-512-229.222-512-512c0-282.752 229.222-512 512-512 106.752 0 205.85 32.742 287.898 88.653l-170.061 170.163z"/>
<glyph unicode="" glyph-name="van" d="M835.686 836.685c0 33.869-22.682 62.285-53.632 72.013-51.789 30.49-153.267 51.302-270.054 51.302-116.813 0-218.291-20.813-270.080-51.328-30.95-9.702-53.632-38.118-53.632-71.987l-60.288-350.438v-313.088c0-41.856 34.304-75.853 76.518-75.853h0.768v-87.885c0-40.576 33.178-73.421 74.112-73.421 40.883 0 74.086 32.819 74.086 73.421v87.885h328.269v-87.885c0-40.576 33.254-73.421 74.112-73.421 40.986 0 74.112 32.819 74.112 73.421v88.934c37.274 5.12 66.022 36.454 66.022 74.803v313.088l-60.314 350.438zM376.218 886.323h271.539c13.338 0 24.064-10.701 24.064-23.859 0-13.21-10.752-23.91-24.064-23.91h-271.539c-13.338 0-24.064 10.701-24.064 23.91 0 13.184 10.752 23.859 24.064 23.859zM279.398 187.827c-40.934 0-74.112 32.845-74.112 73.37s33.178 73.421 74.112 73.421c40.858 0 74.086-32.896 74.086-73.421s-33.229-73.37-74.086-73.37zM755.84 187.827c-40.858 0-74.112 32.845-74.112 73.37s33.254 73.421 74.112 73.421c40.96 0 74.112-32.896 74.112-73.421 0.026-40.525-33.152-73.37-74.112-73.37zM799.795 489.984h-575.59c-16.666 0-30.182 13.363-30.182 29.875l30.182 230.579c0 16.512 13.491 29.875 30.259 29.875h515.174c16.64 0 30.182-13.363 30.182-29.875l30.182-230.579c-0.026-16.512-13.542-29.875-30.208-29.875z"/>
<glyph unicode="" glyph-name="car" horiz-adv-x="2133" d="M1720.917 233.899c-77.739 0-141.44-66.816-141.44-148.864 0-82.219 63.659-148.992 141.44-148.992 78.379 0 141.355 66.773 141.355 148.992 0 82.048-62.976 148.864-141.355 148.864zM368.256 233.899c-77.653 0-141.056-66.816-141.056-148.864 0-82.219 63.36-149.035 141.056-149.035 78.208 0 141.909 66.773 141.909 148.992 0 82.091-63.701 148.907-141.909 148.907zM2061.824 320h-20.523c3.627 0 6.229 12.075 6.229 25.941l-3.371 45.909c0 168.747-375.467 178.091-560.512 175.061-3.797 197.163-271.829 393.088-440.917 393.088-110.507 0-412.032 0-542.549 0-193.451 0-444.288-172.715-444.288-383.659 0-68.949-4.608-234.24-0.341-285.568-32-7.125-55.552-12.928-55.552-48.512 0.299-41.728 31.872-50.261 71.595-50.261h71.765c13.056 85.333 108.331 182.016 224.043 182.955 116.139 0.384 211.755-104.747 226.176-222.293l902.101-3.883c13.653 118.357 108.757 206.464 224.939 207.061 115.584 0.427 211.456-92.331 226.176-210.176l115.755-0.597c39.851 0 71.253 46.464 70.784 87.851 0 41.728-31.616 87.083-71.509 87.083zM191.061 551.893c0 0-5.803 18.731 5.163 62.293 11.264 44.117 113.451 246.571 346.795 214.784 33.536 0 34.347-33.067 34.347-33.067l1.109-238.891-387.413-5.12zM1352.149 551.893l-675.029 5.12 1.152 238.891c0 0 0.811 33.067 34.347 33.067 6.613 0.896 300.715 2.005 307.2 2.091 216.405 1.237 316.245-173.995 326.997-216.875 11.136-43.52 5.333-62.293 5.333-62.293z"/>
<glyph unicode="" glyph-name="walkman" d="M824.397 465.434l-133.862 74.675-108.8 174.822c-2.074 3.379-4.659 6.246-7.398 8.832-17.075 19.456-41.651 31.923-69.376 31.923-14.515 0-28.134-3.686-40.397-9.702-2.355-0.845-4.736-1.843-6.989-3.149l-176.333-105.472c-8.013-4.634-13.824-11.571-17.357-19.456-0.41-0.845-0.64-1.766-0.973-2.662-0.589-1.638-1.178-3.2-1.587-4.864-0.051-0.23-0.154-0.41-0.179-0.589l-33.536-163.098c-4.506-21.274 8.704-42.24 29.619-46.874 21.018-4.659 41.677 8.832 46.285 30.080l28.544 138.726 66.022 39.475-77.85-402.278-130.074-180.531c-18.202-24.755-13.21-59.776 11.238-78.208 24.422-18.483 58.982-13.363 77.184 11.418l137.6 191.002c0.538 0.717 0.845 1.51 1.331 2.253 0.486 0.691 0.896 1.485 1.331 2.227 1.408 2.355 2.714 4.685 3.763 7.117 0.486 1.178 0.845 2.432 1.229 3.635 0.742 2.15 1.485 4.326 1.971 6.554 0.102 0.538 0.333 0.973 0.435 1.51l24.141 124.698 129.894-115.789 84.224-210.125c11.213-28.698 43.213-42.778 71.552-31.411 28.339 11.341 42.189 43.827 31.002 72.576l-87.885 219.11c-0.384 1.050-1.024 1.92-1.459 2.918-3.072 8.090-7.757 15.667-14.541 21.888l-123.341 109.952 39.424 192.384 40.064-64.307c2.662-4.454 6.118-8.090 9.933-11.136 2.381-2.304 4.941-4.378 7.936-6.118l148.173-82.662c19.226-10.982 43.622-4.096 54.4 15.386 10.752 19.533 3.866 44.288-15.36 55.27zM636.006 873.216c0-47.929-38.339-86.784-85.632-86.784s-85.632 38.855-85.632 86.784c0 47.929 38.339 86.784 85.632 86.784s85.632-38.855 85.632-86.784z"/>
<glyph unicode="" glyph-name="share" d="M768 243.226c-33.254 0-63.846-10.88-89.011-28.826l-275.558 192.896c3.61 12.979 6.17 26.47 6.17 40.704s-2.56 27.699-6.17 40.73l275.558 192.896c25.165-17.946 55.757-28.851 89.011-28.851 84.762 0 153.6 68.813 153.6 153.626 0 84.864-68.838 153.6-153.6 153.6-84.787 0-153.626-68.736-153.626-153.626 0-14.157 2.586-27.674 6.17-40.678l-275.558-192.922c-25.139 17.946-55.706 28.826-88.986 28.826-84.787 0-153.6-68.813-153.6-153.6s68.813-153.6 153.6-153.6c33.28 0 63.846 10.88 89.011 28.826l275.558-192.922c-3.61-13.030-6.195-26.522-6.195-40.704 0-84.864 68.838-153.6 153.626-153.6 84.762 0 153.6 68.762 153.6 153.6 0 84.813-68.838 153.626-153.6 153.626z"/>
<glyph unicode="" glyph-name="print" d="M887.962 575.565h-89.37v333.235h-573.184v-333.235h-89.446c-46.797 0-84.762-38.502-84.762-85.99v-416.358c0-47.539 37.965-86.016 84.762-86.016h752c46.874 0 84.838 38.477 84.838 86.016v416.358c0 47.488-37.965 85.99-84.838 85.99zM272.64 860.39h477.696v-497.075h-477.696v497.075zM753.766 95.027h-484.48v93.824h484.506v-93.824zM639.309 797.85h-257.638c-20.301 0-36.813-16.717-36.813-37.299 0-20.608 16.486-37.299 36.813-37.299h257.613c20.301 0 36.787 16.691 36.787 37.299 0 20.582-16.461 37.299-36.762 37.299zM639.309 511.77h-257.638c-20.301 0-36.813-16.717-36.813-37.325s16.486-37.325 36.813-37.325h257.613c20.301 0 36.787 16.717 36.787 37.325s-16.461 37.325-36.762 37.325zM639.309 654.797h-257.638c-20.301 0-36.813-16.691-36.813-37.325 0-20.608 16.486-37.299 36.813-37.299h257.613c20.301 0 36.787 16.691 36.787 37.299 0 20.634-16.461 37.325-36.762 37.325z"/>
<glyph unicode="" glyph-name="timer" d="M792.499 752.333l25.037 37.069 19.072-12.186c4.326-2.79 9.165-4.122 13.978-4.122 8.474 0 16.742 4.122 21.683 11.648 7.706 11.802 4.301 27.622-7.68 35.226l-80.717 51.558c-11.955 7.603-27.93 4.224-35.661-7.552-7.731-11.827-4.301-27.622 7.68-35.251l18.304-11.699-24.32-36.045c-55.552 33.178-118.707 55.142-186.342 62.592v40.653c0 3.482-0.358 7.219-1.024 11.008h8.013c27.034 0 48.973 38.605 51.149 64.768h-219.315c2.15-26.138 24.115-64.768 51.174-64.768h7.987c-0.64-3.763-1.050-7.501-1.050-11.008v-40.653c-230.272-25.344-409.242-218.086-409.267-452.352 0.026-251.418 206.285-455.194 460.774-455.219 254.49 0.026 460.8 203.802 460.826 455.219-0.026 147.174-70.707 277.914-180.301 361.114zM511.974 37.888c-197.478 0.333-357.325 158.208-357.709 353.331 0.384 195.174 160.23 353.075 357.709 353.408 197.53-0.333 357.299-158.234 357.683-353.408-0.384-195.098-160.154-352.973-357.683-353.331zM507.853 657.92c-22.272-0.23-40.115-15.36-39.962-33.792l-24.704-297.958c0.205-18.355 46.925-32.794 69.222-32.461 22.221 0.307 68.608 15.744 68.352 34.125l-32.205 297.242c-0.23 18.432-18.483 33.126-40.704 32.845z"/>
<glyph unicode="" glyph-name="minus" d="M51.2 448c0 63.616 51.584 115.2 115.2 115.2h691.2c63.616 0 115.2-51.584 115.2-115.2s-51.584-115.2-115.2-115.2h-691.2c-63.616 0-115.2 51.584-115.2 115.2z"/>
<glyph unicode="" glyph-name="plus" d="M857.6 563.2h-231.578v230.4c0 63.616-51.61 115.2-115.251 115.2-63.616 0-115.149-51.584-115.149-115.2v-230.4h-229.222c-63.616 0-115.2-51.584-115.2-115.2s51.584-115.2 115.2-115.2h229.222v-230.4c0-63.667 51.533-115.2 115.149-115.2 63.642 0 115.251 51.533 115.251 115.2v230.4h231.578c63.616 0 115.2 51.584 115.2 115.2s-51.584 115.2-115.2 115.2z"/>
<glyph unicode="" glyph-name="play" d="M512 960c-282.752 0-512-229.248-512-512s229.248-512 512-512 512 229.248 512 512-229.248 512-512 512zM512 29.107c-230.989 0-418.893 187.904-418.893 418.893s187.904 418.893 418.893 418.893 418.893-187.904 418.893-418.893-187.93-418.893-418.893-418.893zM671.846 499.251v0l-199.731 145.843c-10.419 7.731-30.285 12.339-44.237 12.339-34.509 0-69.504-28.134-69.504-62.797v-293.274c0-34.662 34.995-62.822 69.504-62.822 13.952 0 30.387 4.608 40.73 12.365l203.93 145.894h-0.333c15.898 0 26.189 30.054 26.189 51.2-0.026 21.146-10.65 39.834-26.547 51.251z"/>
<glyph unicode="" glyph-name="left-open" d="M497.101 448l297.037 296.909c49.152 49.28 49.152 128.973 0 178.15-49.203 49.28-128.973 49.28-178.253 0l-386.074-385.997c-49.101-49.178-49.101-128.973 0-178.15l386.048-385.971c49.28-49.28 129.050-49.28 178.253 0 49.152 49.178 49.152 128.87 0 178.15l-297.011 296.909z"/>
<glyph unicode="" glyph-name="right-open" d="M794.163 537.062l-386.048 385.971c-49.28 49.28-129.050 49.28-178.253 0-49.152-49.178-49.152-128.87 0-178.15l297.037-296.883-297.037-296.909c-49.152-49.28-49.152-128.973 0-178.15 49.203-49.28 128.973-49.28 178.253 0l386.048 385.971c49.101 49.178 49.101 128.973 0 178.15z"/>
<glyph unicode="" glyph-name="top-open" d="M987.059 330.317l-385.997 386.048c-49.178 49.101-128.973 49.101-178.15 0l-385.971-386.048c-49.28-49.28-49.28-129.050 0-178.253 49.178-49.152 128.87-49.152 178.15 0l296.909 297.011 296.909-297.011c49.28-49.152 128.973-49.152 178.15 0 49.254 49.203 49.254 128.973 0 178.253z"/>
<glyph unicode="" glyph-name="bottom-open" d="M987.059 716.314c-49.178 49.152-128.87 49.152-178.15 0l-296.909-297.011-296.909 297.011c-49.28 49.152-128.973 49.152-178.15 0-49.28-49.203-49.28-128.973 0-178.253l385.971-386.048c49.178-49.101 128.973-49.101 178.15 0l385.971 386.048c49.28 49.28 49.28 129.075 0.026 178.253z"/>
<glyph unicode="" glyph-name="youtube" d="M211.727 934.146h58.886l40.335-151.392 37.438 151.392h59.365l-68.064-225.059v-153.515h-58.402v153.515l-69.563 225.059zM405.192 625.177c0-49.272 25.654-74.875 76.085-74.875 41.689 0 74.634 27.919 74.634 74.875v136.948c0 43.62-32.604 75.021-74.634 75.021-45.748 0-76.085-30.191-76.085-75.021v-136.948zM458.619 757.439c0 15.264 7.051 26.666 21.643 26.666 15.889 0 22.754-11.017 22.754-26.666v-129.893c0-15.167-7.778-26.472-21.69-26.472-14.394 0-22.705 11.741-22.705 26.472v129.893zM696.236 834.829v-212.012c-6.277-7.97-20.434-20.917-30.483-20.917-11.062 0-13.867 7.537-13.867 18.788v214.145h-51.927v-233.417c0-27.587 8.503-49.995 36.278-49.995 15.701 0 37.487 8.212 59.998 34.976v-30.82h51.98v279.259h-51.98zM619.914 262.203c3.477-4.588 5.265-11.447 5.265-20.48v-137.338c0-8.451-1.448-14.587-4.349-18.262-5.409-7.15-17.197-6.858-25.212-2.803-3.765 1.882-7.678 5.025-11.741 9.323v165.788c3.383 3.572 6.761 6.329 10.196 8.068 8.65 4.442 19.809 3.624 25.847-4.298zM786.429 268.239c-18.357 0-22.124-12.896-22.124-31.206v-26.903h43.669v26.903c0 18.018-3.812 31.206-21.543 31.206zM937.194 72.023c0-65.747-53.284-119.075-119.026-119.075h-612.143c-65.747 0-119.124 53.329-119.124 119.075v300.803c0 65.793 53.329 119.124 119.124 119.124h612.143c65.747 0 119.026-53.329 119.026-119.124v-300.803zM287.569 350.41h57.581v52.315h-170.957v-52.315h57.631v-308.339h55.745v308.339zM485.719 308.142h-49.465v-201.971c-6.039-7.537-19.423-19.853-29.13-19.853-10.579 0-13.141 7.15-13.141 17.876v203.948h-49.416v-222.354c0-54.006 36.618-54.296 63.285-39.126 9.85 5.702 19.324 13.96 28.449 24.782v-29.368h49.465v266.073zM676.095 244.862c0 35.992-12.029 66.616-48.259 66.616-17.63 0-32.8-11.257-43.96-24.877v116.079h-49.903v-360.657h49.903v20.527c13.719-17.197 28.888-23.862 46.953-23.862 32.941 0 45.312 25.549 45.312 58.5v147.67zM858.887 236.602c0 48.015-22.947 78.211-70.335 78.211-44.633 0-75.213-32.027-75.213-78.211v-119.414c0-47.87 24.204-82.314 71.443-82.314 52.123 0 74.055 31.060 74.055 82.314v19.999h-50.91v-18.552c0-23.138-1.158-37.243-22.073-37.243-19.903 0-21.592 17.294-21.592 37.243v50.19h94.584v67.778h0.046z"/>
<glyph unicode="" glyph-name="thumb-down" d="M153.6 503.936v354.637c0 0 2.842 1.382 168.448 58.778 0 0 113.51 42.65 199.501 42.65 0 0 109.875 0 167.142 0 57.344 0 74.854-46.925 97.152-84.173 0 0 19.098-53.35 0-78.131 0 0 54.118-21.248 57.293-66.611 0 0 9.549-23.782-12.749-64.154 0 0 28.646-36.096 35.046-95.642 0 0 9.549-18.074-19.098-41.933 0 0 34.867-70.426 20.634-107.674 0 0-20.634-71.347-62.029-68.275 0 0-222.95 12.416-238.797 15.514-15.949 3.098-24.499 3.098-55.245-15.514 0 0-14.822-18.637 29.747-80.666 0 0 54.144-105.472 66.867-164.429 0 0 15.923-102.374-70.016-161.306 0 0-41.421-24.832-66.893 0 0 0-6.374 12.39-12.723 99.277 0 0-6.374 68.25-54.144 127.181 0 0-100.762 86.886-129.434 158.259 0 0.026-44.979 111.718-120.704 172.211z"/>
<glyph unicode="" glyph-name="thumb-up" d="M153.6 392.064v-354.637c0 0 2.842-1.382 168.474-58.778 0 0 113.485-42.675 199.501-42.675 0 0 109.875 0 167.142 0 57.318 0 74.829 46.925 97.126 84.173 0 0 19.098 53.35 0 78.131 0 0 54.118 21.248 57.293 66.611 0 0 9.574 23.782-12.723 64.154 0 0 28.646 36.096 35.046 95.642 0 0 9.549 18.074-19.123 41.933 0 0 34.893 70.426 20.634 107.674 0 0-20.634 71.347-62.029 68.275 0 0-222.925-12.416-238.797-15.514-15.949-3.098-24.525-3.098-55.245 15.514 0 0-14.848 18.611 29.747 80.666 0 0 54.144 105.472 66.867 164.429 0 0 15.923 102.374-70.042 161.306 0 0-41.421 24.832-66.893 0 0 0-6.374-12.39-12.723-99.277 0 0-6.374-68.25-54.144-127.181 0 0-100.762-86.886-129.434-158.259 0 0-44.954-111.693-120.678-172.186z"/>
<glyph unicode="" glyph-name="short-list-view" d="M281.549 793.318c0-63.595-51.554-115.149-115.149-115.149s-115.149 51.554-115.149 115.149c0 63.595 51.554 115.149 115.149 115.149s115.149-51.554 115.149-115.149zM281.574 447.846c0-63.609-51.565-115.174-115.174-115.174s-115.174 51.565-115.174 115.174c0 63.609 51.565 115.174 115.174 115.174s115.174-51.565 115.174-115.174zM281.574 102.374c0-63.609-51.565-115.174-115.174-115.174s-115.174 51.565-115.174 115.174c0 63.609 51.565 115.174 115.174 115.174s115.174-51.565 115.174-115.174zM844.723 217.6h-319.923c-70.4 0-128-51.686-128-115.61 0-63.821 57.6-114.79 128-114.79h319.923c71.27 0 128.077 50.97 128.077 114.79 0 63.923-56.806 115.61-128.077 115.61zM524.8 678.4h319.923c71.27 0 128.077 50.97 128.077 114.79 0 63.923-56.806 115.61-128.077 115.61h-319.923c-70.4 0-128-51.686-128-115.61 0-63.821 57.6-114.79 128-114.79zM844.723 576h-319.923c-70.4 0-128-51.686-128-115.61 0-63.821 57.6-114.79 128-114.79h319.923c71.27 0 128.077 50.97 128.077 114.79 0 63.923-56.806 115.61-128.077 115.61z"/>
<glyph unicode="" glyph-name="grid-view" d="M281.6 793.6c0-63.623-51.577-115.2-115.2-115.2s-115.2 51.577-115.2 115.2c0 63.623 51.577 115.2 115.2 115.2s115.2-51.577 115.2-115.2zM627.2 793.6c0-63.623-51.577-115.2-115.2-115.2s-115.2 51.577-115.2 115.2c0 63.623 51.577 115.2 115.2 115.2s115.2-51.577 115.2-115.2zM972.8 793.6c0-63.623-51.577-115.2-115.2-115.2s-115.2 51.577-115.2 115.2c0 63.623 51.577 115.2 115.2 115.2s115.2-51.577 115.2-115.2zM281.6 448c0-63.623-51.577-115.2-115.2-115.2s-115.2 51.577-115.2 115.2c0 63.623 51.577 115.2 115.2 115.2s115.2-51.577 115.2-115.2zM627.2 448c0-63.623-51.577-115.2-115.2-115.2s-115.2 51.577-115.2 115.2c0 63.623 51.577 115.2 115.2 115.2s115.2-51.577 115.2-115.2zM972.8 448c0-63.623-51.577-115.2-115.2-115.2s-115.2 51.577-115.2 115.2c0 63.623 51.577 115.2 115.2 115.2s115.2-51.577 115.2-115.2zM281.6 102.4c0-63.623-51.577-115.2-115.2-115.2s-115.2 51.577-115.2 115.2c0 63.623 51.577 115.2 115.2 115.2s115.2-51.577 115.2-115.2zM627.2 102.4c0-63.623-51.577-115.2-115.2-115.2s-115.2 51.577-115.2 115.2c0 63.623 51.577 115.2 115.2 115.2s115.2-51.577 115.2-115.2zM972.8 102.4c0-63.623-51.577-115.2-115.2-115.2s-115.2 51.577-115.2 115.2c0 63.623 51.577 115.2 115.2 115.2s115.2-51.577 115.2-115.2z"/>
<glyph unicode="" glyph-name="direction-drop" horiz-adv-x="652" d="M293.115 659.428h195.621v44.916h-195.621v48.323l-141.238-70.87 141.238-70.963zM499.647 555.771l-141.256 70.907v-48.323h-195.584v-44.963h195.584v-48.351zM646.042 609.96c-1.21 181.732-145.65 328.071-322.476 326.879-176.863-1.238-319.227-149.532-317.971-331.255 0.475-67.863 20.927-130.839 55.529-183.007l269.675-462.932 266.361 471.943h-0.745c31.809 51.544 50.074 112.798 49.627 178.371zM327.345 387.258c-127.926-0.912-232.355 102.093-233.193 230-0.894 127.888 102.121 232.308 230.009 233.202 127.916 0.847 232.299-102.13 233.202-230.037 0.856-127.907-102.139-232.308-230.018-233.165z"/>
<glyph unicode="" glyph-name="card-ribbon-drop" horiz-adv-x="652" d="M646.051 607.53c-1.21 181.751-145.659 328.071-322.486 326.879-176.863-1.229-319.227-149.532-317.98-331.255 0.475-67.863 20.945-130.821 55.529-182.998l269.684-462.922 266.352 471.943h-0.726c31.809 51.535 50.064 112.78 49.627 178.353zM327.345 384.819c-127.926-0.903-232.355 102.111-233.202 230.018-0.866 127.898 102.13 232.29 230.018 233.202 127.926 0.847 232.308-102.13 233.202-230.037 0.856-127.898-102.13-232.318-230.018-233.183zM267.385 677.758c10.696-0.047 22.090 1.517 33.727 5.027 6.526-1.704 13.005-2.467 18.795-2.513 1.499 0 2.886 0.074 4.152 0.121 3.072 0.27 5.958 0.54 8.89 0.735 5.362-3.826 11.906-6.563 19.326-7.931 4.217-0.847 8.443-1.117 12.679-1.117 31.744 0.475 65.303 18.106 78.541 41.5l-17.725 8.071c-6.982-14.42-35.039-30.394-57.614-31.4 6.73 3.454 13.2 8.136 19.214 14.494 7.792 8.183 13.684 18.143 13.871 29.333 0.186 9.644-5.679 19.745-16.505 25.647-6.712 3.882-13.973 5.809-20.918 5.809-11.59 0-21.606-5.148-29.007-11.878-1.946-1.741-3.668-3.575-5.325-5.511-11.003 28.923-32.396 45.149-53.909 45.54-9.207 0.037-18.469-3.482-24.641-10.277-6.135-6.768-9.356-16.095-9.309-26.978 0-4.831 0.605-10.045 1.871-15.658 4.627-20.191 15.956-34.881 29.528-44.674-1.974-0.112-3.77-0.149-5.623-0.149-18.776 0-35.747 5.734-48.566 12.195-12.502 6.228-21.495 14.215-21.848 14.913l-16.030-10.771c4.143-4.785 13.293-12.241 28.421-20.052 14.783-7.466 34.872-14.448 58.005-14.476zM337.147 723.307c2.439 6.498 6.637 12.968 11.534 17.324 4.99 4.506 10.082 6.721 15.081 6.721h0.047c3.053 0 6.395-0.754 10.538-3.053 5.837-3.612 6.796-6.181 7.056-10.212 0.084-4.599-3.165-11.469-8.853-17.231-10.361-10.519-19.614-14.355-32.796-16.44-2.821 3.733-4.198 8.304-4.422 13.377 0 3.007 0.614 6.2 1.815 9.514zM262.889 744.457c-1.052 4.589-1.489 8.536-1.527 11.971 0.037 7.81 2.234 12.549 4.701 15.155 2.532 2.672 5.241 3.835 9.467 3.928h0.512c9.812-0.037 27.192-10.37 35.803-36.157 1.825-5.325 3.025-11.543 3.025-16.989-0.279-9.439-2.532-15.36-11.515-19.279-0.894-0.298-1.722-0.698-2.467-0.912-16.123 5.818-32.88 19.074-38 42.282zM452.617 637.319c-3.584 3.686-8.89 5.8-14.42 5.8l-223.12 0.233c-5.511 0-10.696-2.085-14.373-5.753-3.156-3.137-4.906-7.215-4.887-11.459l-0.056-135.81c0-4.291 1.713-8.397 4.906-11.562 3.677-3.686 8.872-5.753 14.327-5.753l223.204-0.289c10.687 0.028 19.307 7.764 19.307 17.287v135.82c0.037 4.217-1.676 8.322-4.887 11.487zM444.36 567.519l-235.436 0.251v51.023l235.436-0.317v-50.958z"/>
<glyph unicode="" glyph-name="tools-drop" horiz-adv-x="652" d="M262.665 586.435c-44.339-40.83-75.208-69.26-78.466-72.509-12.093-12.074-12.093-31.642 0-43.66 12.037-11.999 31.511-11.999 43.567 0 3.314 3.23 32.209 33.904 73.328 77.861l-3.677 3.742-34.751 34.565zM408.585 568.627l0.372 0.14c0 0-0.484-0.093-1.257-0.14h-1.508c-2.662 0.261-5.381 0.261-8.090 0.14-5.064 0.419-11.357 1.564-18.246 4.087-7.987 2.951-14.531 7.652-19.167 11.646l-15.965 15.965-34.369 34.518-17.399 17.389c-2.821 3.5-5.967 8.341-8.145 14.122-1.648 4.375-1.21 10.873-0.996 15.407 0.4 7.317 0.4 11.357 0.4 11.357l-0.195-0.158c0.195 7.121-0.968 14.671-4.245 22.035-9.588 22.044-34.397 40.979-59.541 44.591l25.256-57.94c-4.161-8.927-11.627-16.263-21.336-20.452-9.672-4.245-20.042-4.534-29.379-1.731l-25.321 58.005c-14.448-21.085-17.361-52.084-7.587-74.026 8.648-20.219 26.931-30.031 47.672-30.255v-0.112c0 0 0.121 0 0.326 0.112 2.039-0.112 3.975 0 5.874 0.047h1.136c2.299-0.047 5.278-0.428 8.443-0.95 0.354 0 0.68-0.093 0.996-0.093 0.773 0 1.443-0.177 2.262-0.4 1.294-0.242 2.383-0.41 3.761-0.847 0.177-0.084 0.326-0.223 0.54-0.223 1.908-0.559 3.817-1.154 5.651-1.853 7.838-2.932 14.438-7.559 19.139-11.553l16.095-16.105 37.013-37.162 14.615-14.522c2.867-3.575 6.125-8.322 8.266-14.168 1.583-4.366 1.071-11.022 0.847-15.444-0.177-7.242-0.177-11.227-0.177-11.283-0.214-7.177 1.136-14.653 4.394-22.211 9.477-21.904 34.22-40.904 59.513-44.563l-25.395 58.070c4.264 8.741 11.599 16.142 21.299 20.406 9.719 4.208 20.089 4.627 29.426 1.899l25.479-58.182c14.429 21.011 17.259 52.14 7.68 73.905-8.89 20.433-27.155 30.264-48.137 30.534zM355.97 612.827l2.7-2.7c17.231 18.516 35.16 37.748 53.174 57.418l42.98-42.943 56.199 56.255-85.504 85.718c0 0-15.583-2.374-36.417 0.67-18.274 2.802-32.675 8.862-32.675 8.862l-26.652-26.522 53.090-53.071c-19.81-17.985-39.21-35.71-57.782-52.829l30.888-30.86zM646.051 607.539c-1.21 181.741-145.659 328.071-322.476 326.879-176.854-1.229-319.218-149.532-317.989-331.255 0.484-67.863 20.945-130.83 55.557-183.007l269.675-462.932 266.333 471.943h-0.735c31.846 51.544 50.092 112.798 49.636 178.371zM327.345 384.838c-127.926-0.903-232.336 102.093-233.202 230-0.884 127.898 102.13 232.308 230.018 233.202 127.926 0.847 232.308-102.13 233.202-230.037 0.856-127.907-102.13-232.308-230.018-233.165z"/>
<glyph unicode="" glyph-name="loader-drop" horiz-adv-x="652" d="M482.974 577.257c-3.454-2.709-4.282-7.559-1.508-11.031 2.737-3.556 7.624-4.152 11.227-1.592 3.435 2.662 4.217 7.475 1.508 11.031-2.56 3.584-7.55 4.17-11.227 1.592zM493.894 697.4c-7.242 9.896-21.234 11.785-30.897 4.459-9.756-7.457-11.646-21.243-4.403-31.139 7.401-9.7 21.355-11.757 31.055-4.319 9.681 7.447 11.804 21.336 4.245 30.999zM437.36 717.75c14.15 10.501 16.896 30.478 6.321 44.516-10.566 13.889-30.506 16.719-44.637 6.237-13.954-10.594-16.542-30.58-5.976-44.674 10.38-13.861 30.329-16.803 44.293-6.079zM305.18 800.079c-16.607-12.428-19.586-35.793-7.215-52.298 12.586-16.477 35.719-19.819 52.177-7.308 16.617 12.483 19.624 35.812 7.289 52.364-12.409 16.449-35.821 19.735-52.252 7.242zM194.755 772.152c-21.132-16.058-25.209-45.978-9.29-67.165 15.984-21.048 45.968-25.265 66.942-9.263 21.253 15.816 25.377 45.894 9.514 67.044-15.974 21.187-46.108 25.246-67.165 9.384zM175.69 652.093c4.152 3.286 4.692 9.169 1.387 12.995-3.137 3.994-9.058 4.543-12.986 1.434-4.003-3.407-4.385-9.16-1.238-13.098 3.146-3.966 9.030-4.478 12.837-1.331zM170.961 592.812c6.954 6.125 8.164 16.514 2.001 23.701-5.79 7.010-16.272 8.043-23.44 2.346-7.075-6.023-8.062-16.486-2.16-23.664 5.865-7.066 16.291-8.276 23.599-2.383zM163.449 558.080c-9.747-8.043-11.106-22.398-3.044-32.126 7.922-9.886 22.426-11.273 31.977-3.24 9.737 8.229 11.227 22.612 3.249 32.358-8.006 9.588-22.537 11.041-32.182 3.007zM219.108 509.3c-13.033-10.603-14.82-29.715-4.143-42.887 10.733-12.986 29.985-14.708 42.747-4.096 13.107 10.854 14.932 29.91 4.226 42.878-10.557 12.902-29.891 14.792-42.831 4.105zM303.104 489.444c-15.286-12.763-17.603-35.458-4.897-51.070 12.744-15.397 35.766-17.576 51.153-5.046 15.472 12.856 17.51 35.617 4.925 51.284-12.837 15.434-35.682 17.566-51.181 4.831zM393.058 548.073c-20.415-16.989-23.291-47.234-6.6-67.649 16.989-20.359 47.244-23.366 67.807-6.554 20.322 16.924 23.217 47.225 6.554 67.556-17.036 20.638-47.244 23.357-67.761 6.647zM646.042 607.539c-1.21 181.741-145.641 328.071-322.486 326.879-176.854-1.229-319.218-149.532-317.961-331.255 0.465-67.863 20.918-130.83 55.547-183.007l269.647-462.932 266.342 471.943h-0.726c31.828 51.544 50.092 112.798 49.636 178.371zM327.354 384.838c-127.935-0.903-232.327 102.093-233.202 230-0.894 127.898 102.13 232.308 230 233.202 127.935 0.847 232.327-102.13 233.193-230.037 0.884-127.907-102.102-232.308-229.99-233.165z"/>
<glyph unicode="" glyph-name="recycle-drop" horiz-adv-x="652" d="M383.348 578.988l-56.367-73.765 56.367-73.626v28.951c0 0 56.618-1.918 64.605-0.335 8.034 1.536 16.71 14.215 16.71 14.215l42.114 76.586-123.439 0.326v27.648zM521.486 592.915l-51.377 85.569-78.699-46.173 44.879-78.774h72.145c0 0 12.065 16.552 14.541 22.817 2.551 6.153-1.489 16.561-1.489 16.561zM352.777 692.401l-21.057-13.917 90.996-8.257 37.106 79.071-22.593-10.091-33.792 52.14c0 0-7.55 8.89-16.328 9.179-8.769 0.27-100.222 0-100.222 0s7.475-9.765 9.728-13.377c2.29-3.5 56.162-94.748 56.162-94.748zM258.29 797.882c-8.983-7.736-61.905-93.64-61.905-93.64l80.244-46.452 47.83 77.601-38.819 62.492c0 0-18.302 7.652-27.35 0zM181.881 489.91c0 0 6.479-30.245 24.539-31.083 18.041-0.922 105.491-0.223 105.491-0.223v90.177h-93.212l-36.817-58.871zM265.84 586.11l-34.872 79.341-89.73-7.652 20.778-15.407-28.793-49.478c0 0-6.284-14.206 0-24.297 6.293-10.026 46.341-77.871 46.341-77.871l65.983 106.301 20.294-10.938zM646.042 607.539c-1.219 181.741-145.631 328.071-322.467 326.879-176.873-1.229-319.237-149.532-317.98-331.255 0.465-67.863 20.936-130.83 55.557-183.007l269.656-462.932 266.342 471.943h-0.726c31.809 51.544 50.083 112.798 49.617 178.371zM327.345 384.838c-127.926-0.903-232.327 102.093-233.202 230-0.884 127.898 102.13 232.308 230.018 233.202 127.916 0.847 232.327-102.13 233.202-230.037 0.866-127.907-102.111-232.308-230.018-233.165z"/>
<glyph unicode="" glyph-name="email-drop" horiz-adv-x="652" d="M255.87 741.972c-74.696 0-128.959-53.499-128.959-127.125 0-35.942 13.964-69.278 38.195-91.583 23.301-21.606 53.583-32.005 92.607-32.005 25.563 0 49.217 3.789 72.294 11.618 0.698 0.149 1.117 0.922 0.912 1.657l-6.814 27.257-0.707 0.968-1.173 0.056c-21.867-7.922-43.632-11.757-66.634-11.757-10.314 0-25.498 1.015-39.443 6.004-33.997 12.418-56.906 47.523-56.906 87.384 0 47.411 33.885 97.755 96.647 97.755 58.024 0 84.461-40.969 84.461-79.043 0-15.407-5.381-32.656-13.759-44.088-1.862-2.653-8.555-11.236-15.351-11.236-5.241 0-7.903 3.631-7.903 10.715 0 4.329 0.847 9.309 1.415 12.009l14.345 72.909-0.298 1.164-1.089 0.559h-30.217l-1.387-1.229-2.206-11.497c-9.951 14.094-25.879 16.31-34.825 16.31-31.437 0-63.926-27.415-63.926-73.318 0-39.899 26.149-57.828 52.056-57.828 17.436 0 32.815 7.522 43.65 21.318 4.012-11.273 14.792-18.423 28.216-18.423 29.212 0 60.733 32.535 60.733 85.141-0.019 51.191-35.672 106.31-113.934 106.31zM245.146 581.064c-11.124 0-23.049 8.090-23.049 25.823 0 21.178 13.768 37.72 31.223 37.72 16.198 0 21.942-13.517 21.942-25.135 0.019-23.692-15.658-38.409-30.115-38.409zM490.477 728.632h-22.649c17.594-29.622 26.941-62.725 26.941-96.936 0-29.128-6.712-57.297-19.549-83.307h21.802c11.487 26.27 17.492 54.393 17.492 83.307 0 34.015-8.294 66.988-24.036 96.936zM417.429 728.632c21.681-28.281 33.401-61.803 33.401-96.936 0-29.612-8.35-58.117-23.934-83.307h22.854c13.601 25.647 20.871 53.965 20.871 83.307 0 34.658-10.054 67.919-28.979 96.936h-24.213zM364.488 728.632c25.2-27.229 38.977-61.142 38.977-97.047 0-29.919-9.607-58.675-27.527-83.195h23.701c15.369 25.19 23.571 53.639 23.571 83.195 0 35.216-11.487 68.729-32.963 97.047h-25.758zM646.042 607.716c-1.201 181.751-145.622 328.071-322.476 326.889-176.854-1.229-319.218-149.541-317.971-331.264 0.465-67.863 20.927-130.83 55.547-183.007l269.666-462.922 266.342 471.943h-0.726c31.837 51.535 50.092 112.789 49.617 178.362zM327.326 385.015c-127.907-0.903-232.308 102.093-233.193 230-0.884 127.898 102.139 232.308 230.018 233.202 127.926 0.847 232.318-102.13 233.211-230.037 0.856-127.898-102.102-232.299-230.037-233.165z"/>
<glyph unicode="" glyph-name="walkman-drop" horiz-adv-x="652" d="M501.955 676.063c5.679 5.046 7.829 12.558 6.181 19.437l-8.164-7.14c-3.835-3.342-9.635-2.998-12.977 0.801-3.37 3.826-2.979 9.663 0.819 13.005l8.183 7.149c-6.609 2.523-14.383 1.406-20.061-3.603-8.173-7.168-8.993-19.633-1.797-27.797 0.335-0.372 0.652-0.735 0.987-1.061l-3.426-53.080c-2.253-0.707-4.385-1.843-6.246-3.51-4.99-4.319-6.842-10.938-5.409-17.008l7.168 6.302c3.305 2.942 8.378 2.607 11.348-0.698 2.932-3.37 2.579-8.471-0.754-11.366l-7.159-6.284c5.79-2.234 12.549-1.21 17.548 3.146 7.149 6.284 7.857 17.166 1.555 24.325-0.363 0.456-0.763 0.875-1.182 1.257l3.351 51.498c3.631 0.503 7.094 2.076 10.035 4.627zM355.896 640.652c9.635 17.911 19.968 38.549 19.968 38.549l33.019-44.739h58.433l2.085 31.651h-48.165l-42.077 60.202c0 0-3.845 3.752-10.538 3.752h-112.966c-1.052 0-2.095-0.112-3.137-0.307-4.571-0.465-8.844-3.072-11.19-7.419l-28.56-51.796c-3.863-6.982-1.303-15.76 5.679-19.605 6.973-3.854 15.77-1.341 19.596 5.688l24.557 44.516h46.154c-12.372-22.090-27.76-49.934-30.562-56.348-0.568-1.257-4.049-13.526-4.049-13.526l-13.731-92.067-61.915 0.568c-10.594 0.102-35.561-13.098-34.667-35.496l112.91-0.726c10.612-0.102 17.808 11.776 19.177 20.163l9.449 75.487c0.94-0.047 1.862-0.047 2.849-0.047l73.849-153.144h41.267l-81.371 168.802c5.818 7.624 9.244 17.064 13.936 25.842zM363.492 737.606c18.59 0 33.708 15.127 33.708 33.708 0 18.609-15.118 33.708-33.708 33.708-18.609 0-33.718-15.099-33.718-33.708 0-18.581 15.109-33.708 33.718-33.708zM646.051 609.708c-1.238 181.751-145.659 328.071-322.495 326.879-176.863-1.229-319.227-149.532-317.971-331.255 0.465-67.863 20.927-130.83 55.547-183.007l269.647-462.922 266.361 471.934h-0.726c31.818 51.544 50.092 112.798 49.636 178.371zM327.336 387.007c-127.926-0.903-232.336 102.093-233.193 230-0.903 127.898 102.121 232.308 230.009 233.202 127.926 0.847 232.336-102.13 233.202-230.037s-102.121-232.299-230.018-233.165z"/>
<glyph unicode="" glyph-name="percent-drop" horiz-adv-x="652" d="M646.042 609.699c-1.21 181.751-145.641 328.080-322.486 326.889-176.854-1.238-319.218-149.541-317.961-331.264 0.465-67.854 20.918-130.821 55.547-183.007l269.647-462.913 266.342 471.943h-0.726c31.828 51.535 50.092 112.78 49.636 178.353zM327.354 386.998c-127.944-0.903-232.336 102.102-233.202 230.018-0.894 127.888 102.13 232.29 230 233.193 127.935 0.847 232.327-102.121 233.193-230.037 0.884-127.898-102.102-232.318-229.99-233.174zM235.073 627.005c-49.375 0-72.909 31.614-72.909 73.365 0 41.779 23.533 73.43 72.909 73.43 49.459 0 72.918-31.651 72.918-73.43 0-41.751-23.45-73.365-72.918-73.365zM260.524 483.57c-8.127-11.506-12.94-13.945-22.993-13.945h-22.137c-11.962 0-15.332 8.164-7.615 19.223l187.066 267.162c8.183 11.515 12.921 13.917 23.003 13.917h22.035c12.065 0 15.332-8.164 7.745-19.205l-187.103-267.152zM235.073 734.431c-13.889 0-20.126-12.949-20.126-34.062 0-21.104 6.237-34.034 20.126-34.034 13.917 0 20.126 12.93 20.126 34.034 0.009 21.104-6.2 34.062-20.126 34.062zM416.414 463.416c-48.929 0-72.965 31.66-72.965 73.374 0 41.77 23.552 73.411 72.965 73.411 49.375 0 72.881-31.642 72.881-73.411 0-41.714-23.505-73.374-72.881-73.374zM416.414 570.88c-13.945 0-20.173-12.93-20.173-34.090 0-21.085 6.228-34.025 20.173-34.025 13.908 0 20.136 12.94 20.136 34.025 0 21.16-6.228 34.090-20.136 34.090z"/>
<glyph unicode="" glyph-name="old-phone-drop" horiz-adv-x="652" d="M646.051 613.45c-1.229 181.751-145.641 328.090-322.476 326.898-176.873-1.247-319.237-149.551-317.989-331.273 0.465-67.863 20.936-130.821 55.557-183.007l269.647-462.913 266.352 471.943h-0.735c31.828 51.535 50.102 112.789 49.645 178.353zM327.336 390.758c-127.926-0.903-232.327 102.102-233.193 230.018-0.884 127.888 102.121 232.29 230.009 233.193 127.935 0.838 232.336-102.121 233.202-230.046 0.875-127.898-102.093-232.318-230.018-233.165zM230.828 461.964c135 7.522 250.545 123.206 258.113 258.095 1.908 32.982-56.888 61.729-56.888 61.729-5.083 2.495-12.158 0.27-15.63-5.064l-53.034-80.84c-3.472-5.222-3.044-12.856 1.024-16.849l31.939-32.023c3.984-3.966 3.621-10.938-0.884-15.472l-80.393-80.3c-4.506-4.534-11.441-4.943-15.537-0.875l-30.031 30.068c-3.975 4.040-11.478 4.236-16.57 0.484l-85.56-62.641c-5.055-3.724-6.358-10.519-2.951-15.034 0 0 33.382-43.176 66.402-41.277z"/>
<glyph unicode="" glyph-name="settings-drop" horiz-adv-x="652" d="M646.042 609.699c-1.21 181.751-145.622 328.080-322.476 326.889-176.854-1.238-319.209-149.541-317.971-331.264 0.465-67.854 20.927-130.821 55.547-183.007l269.656-462.913 266.352 471.943h-0.735c31.837 51.535 50.092 112.78 49.627 178.353zM327.336 386.998c-127.916-0.903-232.318 102.102-233.193 230.018-0.884 127.888 102.139 232.29 230.018 233.193 127.926 0.847 232.318-102.121 233.202-230.037 0.856-127.898-102.102-232.318-230.028-233.174zM360.187 625.068c3.137 11.329 4.515 23.273 3.938 35.458l-20.005 8.527-6.973 24.278 12.307 17.818c-6.004 10.566-13.526 19.959-22.342 27.89l-20.108-8.136-22.1 12.241-3.947 21.364c-9.626 2.607-19.707 4.031-29.975 4.031-1.825 0-3.668-0.037-5.548-0.149l-8.35-19.977-24.39-7.010-17.818 12.353c-10.603-5.995-19.94-13.535-27.937-22.267l8.173-20.21-12.186-22.118-21.364-3.873c-3.184-11.469-4.506-23.403-3.947-35.523l19.977-8.518 7.056-24.25-12.372-17.846c5.967-10.631 13.535-19.931 22.333-27.871l20.173 8.108 22.193-12.214 3.798-21.374c11.366-3.156 23.403-4.487 35.477-3.956l8.481 19.987 24.287 7.094 17.92-12.362c10.519 5.986 19.884 13.582 27.834 22.323l-8.136 20.089 12.167 22.239 21.383 3.854zM254.147 634.182c-1.098-0.177-2.225-0.27-3.286-0.27-10.259 0-19.261 7.466-20.918 17.948-1.787 11.636 6.135 22.454 17.715 24.241 11.515 1.797 22.379-6.097 24.194-17.697 1.787-11.515-6.070-22.379-17.706-24.222zM489.863 564.652l14.569 17.482c-3.426 9.896-8.499 18.749-14.969 26.289l-22.5-3.584-16.486 9.588-7.941 21.448c-5.027 0.977-10.24 1.489-15.5 1.489-4.85 0-9.775-0.438-14.708-1.35l-8.099-21.336-16.617-9.505-22.426 3.938c-6.684-7.727-11.823-16.57-15.192-26.205l14.28-17.603-0.019-19.13-14.578-17.455c3.463-9.914 8.518-18.776 14.895-26.289l22.575 3.612 16.458-9.607 7.922-21.476c9.784-1.834 19.931-1.983 30.152-0.13l8.155 21.383 16.626 9.43 22.444-3.845c6.637 7.633 11.776 16.524 15.276 26.084l-14.448 17.687 0.13 19.084zM428.907 543.446c-0.652-0.112-1.285-0.149-1.927-0.149-5.827 0-10.975 4.273-11.916 10.268-1.043 6.544 3.491 12.8 10.147 13.777 6.591 1.052 12.735-3.482 13.796-10.026 1.015-6.628-3.491-12.791-10.1-13.871z"/>
<glyph unicode="" glyph-name="delivery-drop-left" horiz-adv-x="652" d="M646.042 609.699c-1.219 181.751-145.641 328.080-322.476 326.889-176.873-1.238-319.237-149.541-317.971-331.264 0.465-67.854 20.918-130.821 55.547-183.007l269.647-462.913 266.361 471.943h-0.735c31.809 51.535 50.092 112.78 49.627 178.353zM327.345 386.998c-127.926-0.903-232.346 102.102-233.202 230.018-0.903 127.888 102.13 232.29 230.009 233.193 127.926 0.847 232.327-102.121 233.211-230.037 0.856-127.898-102.13-232.318-230.018-233.174zM366.071 565.341c-11.581 0-21.001-9.411-21.001-20.983 0-11.618 9.421-21.020 21.001-21.020 11.618 0 20.983 9.402 20.983 21.020 0 11.571-9.365 20.983-20.983 20.983zM186.526 565.341c-11.599 0-20.983-9.411-20.983-20.983 0-11.618 9.384-21.020 20.983-21.020s21.048 9.402 21.048 21.020c0 11.571-9.449 20.983-21.048 20.983zM427.753 607.381l0.056-19.298 102.679 10.221zM427.567 651.962l0.065-19.316 72.406 10.007zM427.39 696.478l0.065-19.354 47.597 9.942zM416.694 573.924h-3.1c0.586 1.657 0.987 3.491 0.987 5.464l-0.521 118.533c-0.056 8.723-7.261 15.928-16.049 15.928h-0.037l-151.087-0.624c-8.872 0-15.946-7.28-15.946-16.133l0.168-33.215c-1.219 0.754-2.811 1.452-4.962 1.415-62.948 8.201-83.298-42.068-86.016-53.425-2.374-9.467-0.707-32.135-0.047-39.377-4.757-1.033-8.285-5.325-8.285-10.352 0.074-5.855 4.776-10.575 10.65-10.557h10.622c1.983 16.701 16.114 29.612 33.345 29.733 17.222 0.074 31.418-12.8 33.597-29.407l112.603 0.456c2.020 16.673 16.151 29.631 33.401 29.696 17.185 0.065 31.418-12.763 33.569-29.407l17.203 0.056c5.921 0 10.594 4.813 10.501 10.659 0 5.874-4.71 10.603-10.594 10.557zM160.163 610.23c0 0-0.838 2.653 0.801 8.797 1.657 6.172 16.84 34.788 51.507 30.301 4.962 0 5.129-4.682 5.129-4.682l0.14-33.708-57.577-0.707z"/>
<glyph unicode="" glyph-name="processing" d="M524.16 780.8c183.501 0 332.8-149.299 332.8-332.8s-149.299-332.8-332.8-332.8-332.8 149.299-332.8 332.8 149.274 332.8 332.8 332.8zM524.16 832c-212.070 0-384-171.93-384-384s171.93-384 384-384 384 171.93 384 384-171.93 384-384 384v0zM524.16 495.744c-28.262 0-51.2-22.938-51.2-51.2s22.938-51.2 51.2-51.2 51.2 22.938 51.2 51.2-22.938 51.2-51.2 51.2zM677.76 495.744c-28.262 0-51.2-22.938-51.2-51.2s22.938-51.2 51.2-51.2 51.2 22.938 51.2 51.2-22.938 51.2-51.2 51.2zM370.56 495.744c-28.262 0-51.2-22.938-51.2-51.2s22.938-51.2 51.2-51.2 51.2 22.938 51.2 51.2-22.938 51.2-51.2 51.2z"/>
<glyph unicode="" glyph-name="circle-time" d="M1024.039 448.031c0-282.212-228.794-511.005-511.005-511.005s-511.005 228.794-511.005 511.005 228.794 511.005 511.005 511.005c282.212 0 511.005-228.794 511.005-511.005zM669.913 451.779l-141.548-0.103-0.069 206.993c0 32.398-26.299 58.698-58.731 58.663-32.433 0-58.698-26.299-58.698-58.731l0.103-264.463c0.035-0.613-0.135-1.193-0.135-1.841 0-32.739 26.536-59.274 59.31-59.241l199.872 0.17c32.739 0.035 59.241 26.57 59.241 59.31-0.035 32.704-26.605 59.241-59.345 59.241z"/>
<glyph unicode="" glyph-name="circle-tick" d="M1023.005 448c0-282.212-228.794-511.005-511.005-511.005s-511.005 228.794-511.005 511.005 228.794 511.005 511.005 511.005c282.212 0 511.005-228.794 511.005-511.005zM790.838 652.334c-23.166 23.131-60.674 23.131-83.84 0l-292.806-292.806-98.215 98.215c-22.926 22.926-60.093 22.926-83.020 0-22.961-22.926-22.961-60.093 0-83.054l138.925-138.925c0.375-0.409 0.647-0.886 1.056-1.293 23.131-23.166 60.674-23.166 83.84 0l334.026 334.026c23.166 23.166 23.166 60.674 0.035 83.84z"/>
<glyph unicode="" glyph-name="one-day" horiz-adv-x="1296" d="M635.719 236.876c0-165.949-134.605-300.428-300.522-300.428-166.042 0-300.522 134.481-300.522 300.428 0 166.042 134.481 300.522 300.522 300.522 165.918 0 300.522-134.481 300.522-300.522zM716.093 746.584c-27.999 0-46.49-22.982-46.49-51.32v-281.939c0-37.134 58.569-63.616 58.569-63.616l178.925-89.696c24.22-14.215 62.037-5.791 76.036 18.798 13.969 24.468-22.301 55.844-46.519 69.965l-174.062 79.197v267.29c-0.032 28.34-18.522 51.32-46.459 51.32zM785.251 950.595c-230.897 0-424.41-161.177-474.956-376.837 7.991 0.557 16.013 1.207 24.22 1.207 30.879 0 60.644-4.429 89.077-12.202 44.010 158.609 188.991 275.186 361.661 275.186 207.451 0 375.628-168.178 375.628-375.628 0-207.482-168.178-375.628-375.628-375.628-48.255 0-94.248 9.478-136.587 25.985-14.184-35.866-34.379-68.728-59.282-97.376 59.992-26.42 126.243-41.286 195.867-41.286 269.24-0.032 488.307 219.034 488.307 488.307 0 269.208-219.066 488.275-488.307 488.275zM213.508 175.054c0.713 3.313 2.107 6.536 4.303 9.756 2.045 3.313 4.614 6.41 7.619 9.446 3.004 3.004 6.226 5.699 9.446 8.299 3.222 2.477 6.226 4.678 9.044 6.752 10.282 7.464 19.544 14.619 27.969 21.371 8.393 6.752 15.61 13.907 21.618 21.371 6.008 7.557 10.593 15.64 13.907 24.468 3.192 8.703 4.863 18.861 4.863 30.383 0 11.521-2.17 21.464-6.442 29.671-4.243 8.299-9.943 15.022-17.22 20.318-7.246 5.235-15.764 9.107-25.519 11.49-9.85 2.386-20.225 3.561-31.189 3.561-8.733 0-17.128-0.867-25.242-2.445-7.991-1.642-15.207-3.965-21.526-7.001-6.41-3.036-11.46-6.597-15.207-10.747-3.81-4.058-5.699-8.549-5.699-13.318 0-4.46 1.148-8.796 3.439-12.915 2.26-4.151 4.335-7.217 6.316-9.167 2.291-2.075 4.089-2.942 5.451-2.849 1.455 0.094 3.468 1.085 6.287 2.849 5.699 3.439 12.327 6.38 19.883 8.765 7.495 2.386 15.889 3.561 25.119 3.561 12.047 0 20.473-2.601 25.366-7.868 4.894-5.295 7.309-11.893 7.309-19.915 0-9.57-2.539-17.809-7.742-24.964-5.079-7.156-11.521-13.907-19.080-20.349-7.681-6.316-16.013-12.76-24.809-19.11-8.921-6.442-17.22-13.505-24.809-21.216-7.681-7.774-13.999-16.756-19.171-26.915-5.111-10.161-7.742-22.053-7.742-35.834 0-6.008 0.929-10.685 2.695-13.907 1.765-3.222 5.605-4.863 11.616-4.863h125.839c6.752 0 10.84 1.238 12.202 3.747 1.333 2.509 2.107 6.752 2.107 12.76v7.868c0 6.536-0.774 10.935-2.107 13.348-1.362 2.386-5.451 3.593-12.202 3.593h-86.689zM433.967 181.778v-33.791c0-6.752 1.207-10.747 3.593-12.202 2.386-1.362 6.783-2.013 13.348-2.013h12.017c6.008 0 10.282 0.65 12.76 2.013 2.477 1.455 3.747 5.451 3.747 12.202v33.791h21.062c6.752 0 10.84 1.301 12.202 3.84 1.333 2.509 2.107 6.752 2.107 12.76v5.605c0 6.536-0.774 10.964-2.107 13.348-1.362 2.386-5.451 3.561-12.202 3.561h-21.062v133.706c0 6.752-1.27 10.872-3.747 12.202-2.509 1.362-6.752 2.107-12.76 2.107h-22.919c-3.222 0-5.917-0.217-7.868-0.403-1.982-0.217-3.778-0.713-5.451-1.455-1.673-0.836-3.066-1.951-4.303-3.407-1.238-1.516-2.787-3.561-4.551-6.040l-87.867-129.246c-2.291-3.222-3.717-6.134-4.46-8.612-0.836-2.509-1.148-5.917-1.148-10.161v-11.212c0-7.062 0.836-11.521 2.571-13.597 1.765-1.982 5.605-3.004 11.616-3.004h95.425zM433.967 220.894h-64.949l64.949 96.167v-96.167z"/>
<glyph unicode="" glyph-name="logo-small" d="M512.010 922.439c-267.834 0-484.931-217.045-484.931-484.874 0-267.78 217.1-484.874 484.931-484.874 267.726 0 484.828 217.075 484.828 484.874 0 267.804-217.075 484.874-484.828 484.874zM596.162 205.236c-4.221 0-8.544 0.437-12.937 1.311-8.282 2.079-16.482 6.198-22.572 12.362-63.896 55.571 51.351 260.396 38.933 273.594-3.753-0.463-7.637-10.643-14.395-24.686-34.974-72.047-115.142-262.612-180.975-262.612-10.361 0-25.791 3.908-37.1 15.71-37.313 38.878-8.282 115.119-2.13 178.913-8.079-8.046-87.499-194.624-160.658-194.624-1.311 0-2.647 0-3.964 0.129-66.293 6.198-57.623 97.788-37.031 153.356h106.94c-32.807-90.588 12.422-53.538 43.327 4.116 61.761 125.535 62.358 127.827 130.264 317.18h117.357c-34.946-107.045-64.437-203.962-78.814-315.091 0-4.116 1.979-8.228 6.146-6.198 24.741 4.116 155.646 300.693 167.908 321.287h117.461c0 0-124.889-345.999-104.293-378.836 10.309-18.646 24.686 16.429 37.031 30.807l18.596-18.559c-34.407-38.187-74.209-108.223-129.085-108.149zM769.598 208.453c-19.466 0-35.355 15.814-35.355 35.402 0 19.516 15.889 35.278 35.355 35.278 19.486 0 35.355-15.785 35.355-35.278 0-19.594-15.867-35.402-35.355-35.402z"/>
<glyph unicode="" glyph-name="logo-small-circle" horiz-adv-x="1072" d="M553.18 897.727c-250.12 0-452.965-202.804-452.965-452.989 0-250.144 202.844-452.926 452.965-452.926 250.162 0 452.965 202.783 452.965 452.926 0 250.181-202.804 452.989-452.965 452.989zM553.219 56.513c-214.417 0-388.294 173.793-388.294 388.25 0 214.437 173.877 388.25 388.294 388.25 214.375 0 388.213-173.816 388.213-388.25 0-214.437-173.837-388.25-388.213-388.25zM787.749 287.089c0-15.69-12.663-28.348-28.27-28.348-15.603 0-28.348 12.663-28.348 28.348 0 15.628 12.745 28.248 28.348 28.248 15.587 0 28.27-12.619 28.27-28.248zM437.157 271.325c-29.877 31.111-6.631 92.179-1.691 143.261-6.469-6.442-70.086-155.84-128.684-155.84-1.050 0-2.101 0-3.129 0.103-53.082 4.962-46.164 78.302-29.668 122.795h85.646c-26.29-72.518 9.925-42.845 34.673 3.295 49.453 100.518 49.948 102.353 104.305 253.993h93.989c-27.981-85.731-51.638-163.333-63.109-252.3 0-3.295 1.563-6.607 4.9-4.985 19.785 3.295 124.629 240.771 134.428 257.286h94.053c0 0-100.001-277.050-83.532-303.363 8.278-14.905 19.785 13.176 29.668 24.689l14.891-14.891c-27.55-30.578-59.399-86.684-103.361-86.623-3.379 0-6.84 0.35-10.378 1.068-6.589 1.644-13.198 4.941-18.062 9.884-51.186 44.516 41.097 208.505 31.173 219.092-3.005-0.371-6.115-8.522-11.55-19.768-27.981-57.69-92.221-210.279-144.884-210.279-8.296 0-20.63 3.129-29.691 12.579z"/>
<glyph unicode="" glyph-name="logo-no-text" d="M762.531 413.28c-1.352 2.322 1.352 17.255 10.253 32.957 8.83 15.688 23.208 27.921 30.161 23.044 7.003-4.889-7.16-29.657-40.413-55.997zM670.784 460.047c-2.877-3.322-18.565-27.076-18.018-46.076 1.031-16.099 8.18-11.862 12.73-9.335 10.709 7.335 21.197 34.772 22.197 50.509 0.247 13.699-9.314 13.511-16.907 4.901zM510.969 529.796c-27.776-6.818-75.835-70.49-70.296-73.637 17.145 3.465 84.261 74.914 70.296 73.637zM1004.92 446.402c0-54.455-22.043-103.724-57.731-139.384-35.647-35.679-84.9-57.731-139.341-57.731h-590.144c-54.1 0.226-103.013 22.237-138.505 57.731-35.67 35.67-57.731 84.932-57.731 139.384 0 54.429 22.062 103.685 57.731 139.361 35.491 35.491 84.404 57.515 138.526 57.746h590.38c54.347-0.074 103.487-22.113 139.094-57.746 35.679-35.67 57.72-84.923 57.72-139.361zM342.974 417.146l-8.128 8.106c-5.394-6.294-11.688-21.64-16.206-13.524-8.962 14.431 45.663 165.799 45.663 165.799h-51.397c-5.394-8.995-62.651-138.784-73.494-140.601-1.795-0.877-2.664 0.938-2.664 2.755 6.25 48.602 19.188 90.996 34.492 137.855h-51.367c-29.728-82.84-29.975-83.848-57-138.784-13.503-25.241-33.327-41.415-18.937-1.826h-46.798c-9.016-24.28-12.823-64.36 16.185-67.076 0.588-0.040 1.164-0.040 1.721-0.040 32.018 0 66.766 81.632 70.314 85.158-2.681-27.933-15.42-61.27 0.896-78.309 4.972-5.155 11.74-6.85 16.249-6.85 28.819 0 63.909 83.374 79.207 114.878 2.932 6.157 4.651 10.624 6.294 10.808 5.426-5.775-45.014-95.4-17.041-119.704 2.673-2.706 6.278-4.539 9.902-5.426 26.984-5.394 45.92 28.748 62.103 46.776zM372.506 383.584c0 7.615-6.18 13.77-13.779 13.77-7.572 0-13.761-6.168-13.761-13.77 0-7.615 6.187-13.779 13.761-13.779 7.602 0 13.779 6.168 13.779 13.779zM477.475 455.787c-2.175-1.076-29.531-14.254-29.531-14.254s6.354-37.629-8.861-42.24c-4.941-0.641-10.738 14.431-5.464 36.999 72.843 37.854 119.031 109.253 106.366 116.38-20.815 11.553-113.297-14.627-142.933-114.637-3.497-0.982-20.329-5.313-20.329-5.313l-7.292-19.785 25.983 7.946c0 0-2.839-49.635 40.803-51.099 34.306 1.319 52.192 51.759 41.259 86.004zM607.493 391.322c-0.814 2.061-3.846 11.717-3.846 11.717s-9.684-9.127-12.047-7.953c-2.413 1.236 28.366 91.346 28.366 91.346h-33.894c-5.065-22.943-34.202-82.734-53.955-85.334-6.747 0.507 23.87 68.769 24.983 76.493 2.258 10.1-5.229 14.728-14.245 12.665-9.457-3.229-47.902-28.911-47.902-28.911v-14.265c0 0 18.722 12.203 20.142 9.965 0.515-6.417-23.195-60.578-23.684-68.787-0.412-3.961 1.681-18.465 14.069-18.465 3.094 0 8.739 0.888 13.822 3.662 18.276 9.965 37.754 29.119 37.754 29.119s-4.651-12.057-2.623-21.683c1.949-9.623 12.163-13.542 22.983-9.549 10.767 4.034 24.767 13.576 30.079 19.98zM681.090 323.153l52.036 163.283h-32.108c0 0-3.279-7.881-3.961-9.407-3.705 6.427-16.609 18.987-43.217 2.372-27.839-17.989-39.671-48.685-35.96-81.237 4.064-26.963 27.045-39.939 52.874-7.282-3.868-4.919-22.104-67.726-22.104-67.726h32.441zM816.275 402.172l-7.541 11.617c0 0-32.7-31.381-44.158-14.676 61.723 32.491 76.546 73.644 57.524 85.179-28.064 15.709-105.002-12.42-96.278-89.347-3.838-2.29-11.915-6.663-11.915-6.663l5.629-15.288c0 0 10.746 6.417 13.636 8.404 9.045-7.292 13.708-11.328 27.725-11.604 29.735-0.608 55.368 32.378 55.368 32.378zM938.74 469.412c-0.196 23.011-16.288 19.742-18.979 18.895-22.331-7.468-41.879-35.39-41.879-35.39l9.684-9.684c0 0 9.212 17.494 18.051 17.494 8.861 0-5.22-34.142-7.447-39.197-11.624-25.63-32.706-36.648-38.463-14.011-7.271 37.196 43.498 77.287 43.498 77.287l-34.452 0.007c0 0-57.811-44.961-37.533-95.37 2.074-4.765 10.305-19.155 28.089-19.668 7.508-0.237 15.669 2.331 28.13 9.085 41.775 22.796 52.029 79.783 51.306 90.541z"/>
<glyph unicode="" glyph-name="logo-main" d="M494.838 148.505c0 8.063-7.15 12.799-19.155 12.799h-18.824c-3.549 0-5.148-0.412-5.961-4.837l-6.859-45.156c-0.497-3.929 1.622-5.043 5.148-5.043h20.764c14.296 0 23.774 7.16 23.774 18.143 0 4.024-2.003 8.766-7.654 10.684 5.446 2.322 8.766 7.459 8.766 13.41zM470.339 118.662h-9.666l1.505 10.583h10.18c4.941 0 5.548-3.025 5.548-4.227 0-3.033-2.021-6.354-7.572-6.354zM472.855 139.426h-9.069l1.402 9.48h9.49c3.422 0 4.828-1.929 4.828-3.838 0.007-3.229-2.508-5.639-6.651-5.639zM869.569 161.304h-6.24c-3.135 0-4.746-0.803-5.353-4.941l-2.114-14.913h-19.556l2.011 14.709c0.507 3.929-0.796 5.148-4.227 5.148h-6.25c-3.025 0-4.631-0.803-5.249-4.941l-6.457-45.054c-0.608-3.828 0.608-5.043 3.943-5.043h6.24c3.135 0 4.849 0.803 5.446 4.849l2.322 16.524h19.65l-2.322-16.328c-0.515-3.828 0.701-5.043 4.133-5.043h6.24c3.033 0 4.732 0.803 5.446 4.849l6.55 45.047c0.628 3.929-0.877 5.148-4.209 5.148zM911.293 162.314c-19.456 0-33.163-13.4-33.163-32.659 0-15.42 9.684-24.497 24.785-24.497 19.465 0 33.163 13.41 33.163 32.666 0.007 15.413-9.666 24.489-24.785 24.489zM904.755 118.57c-6.651 0-10.478 4.321-10.478 12.192 0 10.778 6.147 18.143 15.214 18.143 6.651 0 10.478-4.343 10.478-12.203 0-10.778-6.157-18.135-15.214-18.135zM810.21 148.505c0 8.063-7.136 12.799-19.145 12.799h-18.857c-3.622 0-5.24-0.412-5.942-4.837l-6.85-45.156c-0.507-3.929 1.505-5.043 5.14-5.043h20.764c14.223 0 23.795 7.16 23.795 18.143 0 4.024-2.114 8.766-7.755 10.684 5.426 2.322 8.851 7.459 8.851 13.41zM785.721 118.662h-9.675l1.505 10.583h10.085c5.043 0 5.548-3.025 5.548-4.227-0.007-3.033-1.92-6.354-7.468-6.354zM788.137 139.426h-8.975l1.319 9.48h9.572c3.422 0 4.732-1.929 4.732-3.838-0.007-3.229-2.425-5.639-6.651-5.639zM749.835 161.304h-5.548c-2.322 0-3.332-2.021-4.219-3.436-3.54 2.825-8.789 4.445-13.212 4.445-18.857 0-30.129-18.949-30.129-36.989 0-10.882 4.127-20.167 17.545-20.167 7.252 0 14.513 2.825 19.041 8.363l0.102-3.322c0.102-3.633 1.826-3.943 4.849-3.943h2.011c4.133 0 5.639 0.402 6.343 4.849l7.16 44.746c0.588 3.519-0.621 5.446-3.943 5.446zM734.716 133.083c-1.411-8.766-8.161-14.913-15.019-14.913-4.33 0-6.859 3.436-6.859 9.273s5.249 22.579 14.929 22.579c2.918 0 7.263-1.714 8.766-5.849l-1.815-11.087zM671.023 162.314c-6.663 0-12.893-1.411-18.041-6.157-2.216 3.633-5.353 5.548-8.881 5.548-2.722 0-5.548-1.205-7.549-3.025-1.102-1.205-0.907-2.114-0.311-3.025 2.021-2.623 1.714-7.354 1.311-10.684l-10.077-62.188c-0.608-3.929 1.013-5.031 4.732-5.031h4.849c3.828 0 5.344 0.39 6.147 4.837l4.227 24.695c3.527-1.311 7.263-2.122 11.087-2.122 16.626 0 32.458 12.398 32.458 35.39 0 13.595-7.767 21.764-19.959 21.764zM657.427 118.57c-2.839 0-5.858 0.497-8.18 1.505l3.838 23.474c3.735 3.322 8.571 5.446 12.595 5.446 7.066 0 8.777-5.849 8.777-11.087-0.007-12.387-7.777-19.339-17.030-19.339zM597.346 166.441c5.031 0 9.273 4.436 9.273 9.263 0 4.343-2.825 7.263-7.263 7.263-5.24 0-9.169-4.034-9.169-9.273 0-4.539 2.722-7.252 7.16-7.252zM141.473 161.304h-6.25c-3.126 0-4.732-0.803-5.331-4.941l-2.122-14.913h-19.556l2.011 14.709c0.507 3.929-0.803 5.148-4.227 5.148h-6.25c-3.010 0-4.631-0.803-5.24-4.941l-6.446-45.054c-0.608-3.828 0.608-5.043 3.929-5.043h6.24c3.135 0 4.861 0.803 5.446 4.849l2.322 16.524h19.65l-2.312-16.328c-0.507-3.828 0.701-5.043 4.127-5.043h6.25c3.025 0 4.732 0.803 5.437 4.849l6.56 45.047c0.608 3.929-0.896 5.148-4.227 5.148zM203.96 161.304h-5.538c-2.312 0-3.322-2.021-4.227-3.436-3.54 2.825-8.766 4.445-13.212 4.445-18.846 0-30.129-18.949-30.129-36.989 0-10.882 4.133-20.167 17.545-20.167 7.263 0 14.513 2.825 19.051 8.363l0.102-3.322c0.102-3.633 1.815-3.943 4.849-3.943h2.011c4.127 0 5.639 0.402 6.354 4.849l7.15 44.746c0.588 3.519-0.628 5.446-3.951 5.446zM188.842 133.083c-1.411-8.766-8.169-14.913-15.007-14.913-4.33 0-6.859 3.436-6.859 9.273 0 9.273 5.22 22.579 14.903 22.579 2.932 0 7.252-1.714 8.766-5.849l-1.806-11.087zM573.753 166.441c5.14 0 9.385 4.321 9.385 9.263 0 4.436-2.825 7.263-7.066 7.263-5.229 0-9.47-4.133-9.47-9.375-0.007-4.436 2.815-7.15 7.15-7.15zM276.435 161.304h-6.25c-1.815 0-4.239-0.507-5.942-4.239l-17.835-33.46-7.767 33.057c-0.701 3.229-2.918 4.643-5.639 4.643h-5.734c-3.735 0-5.353-1.714-5.849-4.837l-8.26-45.156c-0.701-4.239 0.608-5.043 4.034-5.043h4.127c4.127 0 5.344 0.608 6.053 4.849l3.117 18.244v7.654l7.066-26.611c0.608-2.413 2.011-3.735 4.426-3.735h5.24c2.322 0 3.332 1.421 4.436 3.54l13.602 26.81-1.622-7.654-1.806-18.051c-0.311-4.239 0.796-5.043 4.539-5.043h4.828c3.828 0 5.639 0.507 6.042 4.849l4.034 45.353c0.298 3.219-0.999 4.837-4.837 4.837zM585.039 162.314c-19.051 0-32.45-14.011-32.45-32.254 0-18.547 12.799-24.9 25.395-24.9 7.549 0 14.822 1.721 20.35 4.436 2.114 1.222 2.941 2.425 2.425 5.043l-0.907 4.33c-0.608 2.722-2.413 2.932-4.631 2.228-3.828-1.222-9.675-2.825-15.226-2.825-7.755 0-11.286 2.918-11.791 10.583h30.933c2.021 0 4.239 0.298 5.639 3.025 1.411 2.918 2.425 8.363 2.425 11.583 0.014 11.893-8.355 18.752-22.168 18.752zM592.518 140.025h-22.175c1.815 6.354 6.643 9.882 13.503 9.882 5.93 0 10.077-4.539 8.673-9.882zM532.736 162.314c-19.456 0-32.039-13.4-32.039-32.957 0-15.43 8.26-24.197 22.868-24.197 8.663 0 15.617 2.122 22.084 6.56 1.806 1.411 1.714 3.422 0.907 5.229l-1.721 3.929c-0.701 1.505-1.721 2.413-3.527 1.609-6.25-2.815-9.069-3.828-13.101-3.828-8.47 0-11.388 6.042-11.388 13.4 0 10.284 6.941 16.626 15.214 16.626 4.227 0 8.562-1.714 12.203-5.538 1.093-0.907 2.322-0.712 3.117 0.113 2.011 2.003 2.918 4.426 2.918 7.15 0.007 6.949-7.252 11.903-17.535 11.903zM400.604 162.314c-19.051 0-32.458-14.011-32.458-32.254 0-18.547 12.813-24.9 25.405-24.9 7.549 0 14.802 1.721 20.35 4.436 2.122 1.222 2.932 2.425 2.413 5.043l-0.896 4.33c-0.608 2.722-2.425 2.932-4.631 2.228-3.838-1.222-9.675-2.825-15.226-2.825-7.755 0-11.286 2.918-11.791 10.583h30.945c2.011 0 4.227 0.298 5.629 3.025 1.421 2.918 2.425 8.363 2.425 11.583 0.007 11.893-8.363 18.752-22.168 18.752zM408.058 140.025h-22.168c1.815 6.354 6.643 9.882 13.503 9.882 5.952 0 10.077-4.539 8.663-9.882zM358.373 161.304h-6.25c-3.033 0-4.746-0.803-5.353-4.941l-2.114-14.913h-19.556l2.011 14.709c0.507 3.929-0.814 5.148-4.127 5.148h-6.24c-3.117 0-4.732-0.803-5.344-4.941l-6.457-45.054c-0.599-3.828 0.608-5.043 4.034-5.043h6.147c3.135 0 4.849 0.803 5.446 4.849l2.413 16.524h19.661l-2.425-16.328c-0.507-3.828 0.701-5.043 4.127-5.043h6.25c3.033 0 4.849 0.803 5.446 4.849l6.55 45.047c0.621 3.929-0.796 5.148-4.219 5.148zM802.936 469.269c-6.949 4.879-21.332-7.354-30.161-23.044-8.894-15.688-11.593-30.633-10.253-32.957 33.265 26.356 47.428 51.118 40.413 55.997zM947.189 307.018c35.689 35.67 57.731 84.932 57.731 139.384 0 54.429-22.043 103.685-57.731 139.361-35.607 35.627-84.746 57.669-139.094 57.746h-590.38c-54.121-0.226-103.035-22.246-138.526-57.746-35.67-35.67-57.731-84.923-57.731-139.361 0-54.455 22.062-103.724 57.731-139.384 35.491-35.491 84.404-57.504 138.505-57.731h590.144c54.44 0 103.702 22.055 139.35 57.731zM868.744 484.833l34.452-0.007c0 0-50.769-40.095-43.498-77.287 5.766-22.642 26.841-11.624 38.463 14.011 2.228 5.055 16.307 39.197 7.447 39.197-8.83 0-18.051-17.494-18.051-17.494l-9.684 9.684c0 0 19.547 27.921 41.879 35.39 2.689 0.847 18.783 4.103 18.979-18.895 0.721-10.76-9.529-67.738-51.315-90.509-12.451-6.757-20.62-9.323-28.13-9.085-17.794 0.515-26.024 14.895-28.089 19.668-20.268 50.376 37.545 95.339 37.545 95.339zM822.111 484.298c19.019-11.531 4.199-52.679-57.524-85.179 11.461-16.7 44.158 14.676 44.158 14.676l7.541-11.617c0 0-25.63-32.987-55.368-32.367-14.011 0.278-18.669 4.313-27.725 11.604-2.899-1.991-13.636-8.404-13.636-8.404l-5.629 15.288c0 0 8.088 4.372 11.915 6.663-8.724 76.917 68.202 105.046 96.278 89.337zM653.828 479.396c26.611 16.616 39.518 4.054 43.217-2.372 0.683 1.527 3.961 9.407 3.961 9.407h32.108l-52.036-163.283h-32.45c0 0 18.236 62.807 22.104 67.726-25.828-32.659-48.808-19.689-52.874 7.282-3.705 32.554 8.137 63.25 35.969 81.237zM557.095 477.592c-1.102-7.737-31.726-75.988-24.983-76.493 19.752 2.597 48.891 62.394 53.955 85.334h33.894c0 0-30.779-90.111-28.366-91.346 2.36-1.164 12.047 7.953 12.047 7.953s3.033-9.666 3.846-11.717c-5.313-6.404-19.319-15.946-30.086-19.969-10.817-3.985-21.033-0.061-22.983 9.549-2.033 9.623 2.623 21.683 2.623 21.683s-19.474-19.155-37.754-29.119c-5.096-2.773-10.738-3.662-13.822-3.662-12.387 0-14.481 14.491-14.069 18.465 0.485 8.211 24.197 62.362 23.684 68.787-1.421 2.24-20.142-9.965-20.142-9.965v14.265c0 0 38.443 25.684 47.902 28.911 9.025 2.043 16.514-2.589 14.254-12.676zM376.725 432.744c0 0 16.833 4.33 20.329 5.313 29.634 100.011 122.115 126.181 142.933 114.637 12.665-7.117-33.525-78.516-106.366-116.38-5.273-22.568 0.525-37.639 5.464-36.999 15.214 4.611 8.861 42.24 8.861 42.24s27.353 13.172 29.531 14.254c10.935-34.253-6.949-84.695-41.267-85.985-43.643 1.463-40.803 51.099-40.803 51.099l-25.983-7.946 7.302 19.766zM372.506 383.584c0-7.615-6.18-13.779-13.779-13.779-7.572 0-13.761 6.168-13.761 13.779 0 7.615 6.187 13.77 13.761 13.77 7.602 0 13.779-6.157 13.779-13.77zM186.273 376.655c-16.328 17.041-3.591 50.385-0.896 78.309-3.549-3.527-38.296-85.158-70.314-85.158-0.557 0-1.133 0-1.721 0.040-29.004 2.714-25.201 42.796-16.185 67.076h46.788c-14.39-39.591 5.437-23.425 18.937 1.826 27.034 54.925 27.271 55.938 57 138.784h51.367c-15.298-46.848-28.239-89.254-34.492-137.855 0-1.815 0.865-3.622 2.664-2.755 10.852 1.826 68.099 131.614 73.494 140.601h51.397c0 0-54.628-151.369-45.663-165.799 4.517-8.119 10.802 7.229 16.206 13.524l8.128-8.106c-16.185-18.041-35.122-52.182-62.095-46.776-3.633 0.888-7.229 2.722-9.902 5.426-27.973 24.303 22.465 113.928 17.041 119.691-1.639-0.185-3.363-4.651-6.294-10.808-15.298-31.503-50.376-114.878-79.207-114.878-4.506 0.007-11.273 1.7-16.249 6.859zM510.969 529.796c-27.776-6.818-75.835-70.49-70.296-73.637 17.145 3.465 84.261 74.914 70.296 73.637zM665.483 404.628c10.709 7.335 21.197 34.772 22.197 50.509 0.247 13.708-9.314 13.536-16.907 4.909-2.877-3.322-18.565-27.076-18.018-46.076 1.043-16.113 8.187-11.872 12.73-9.346z"/>
<glyph unicode="" glyph-name="mvideo-circle" d="M500.622 946.278c-276.434 0-500.622-224.142-500.622-500.645 0-276.457 224.188-500.577 500.622-500.577 276.48 0 500.622 224.119 500.622 500.577 0 276.503-224.142 500.645-500.622 500.645zM500.668 16.577c-236.976 0-429.147 192.080-429.147 429.079s192.171 429.102 429.147 429.102c236.931 0 429.056-192.102 429.056-429.102s-192.125-429.079-429.056-429.079zM759.876 271.394c0-17.34-13.995-31.334-31.243-31.334s-31.334 13.995-31.334 31.334c0 17.271 14.086 31.221 31.334 31.221 17.226 0 31.243-13.949 31.243-31.221zM372.395 253.963c9.99-10.445 23.643-13.904 32.836-13.904 58.231 0 129.206 168.641 160.131 232.402 6.007 12.425 9.421 21.436 12.766 21.845 10.968-11.696-91.022-192.944-34.452-242.142 5.37-5.461 12.675-9.102 19.957-10.923 3.914-0.796 7.737-1.183 11.469-1.183 48.583-0.068 83.786 61.941 114.233 95.733l-16.452 16.452c-10.923-12.743-23.643-43.759-32.791-27.284-18.227 29.082 92.319 335.28 92.319 335.28h-103.947c-10.854-18.25-126.703-280.713-148.571-284.353-3.686-1.798-5.416 1.866-5.416 5.507 12.675 98.327 38.798 184.092 69.723 278.847h-103.879c-60.097-167.595-60.621-169.62-115.28-280.713-27.329-50.995-67.379-83.809-38.32-3.641h-94.663c-18.227-49.175-25.873-130.23 32.791-135.714 1.161-0.114 2.321-0.114 3.459-0.114 64.762 0 135.077 165.114 142.222 172.237-5.461-56.457-31.152-123.95 1.866-158.333z"/>
</font>
</defs>
</svg>
